<?xml version="1.0" encoding="UTF-8"?>
<!DOCTYPE svg PUBLIC "-//W3C//DTD SVG 1.1//EN" "http://www.w3.org/Graphics/SVG/1.1/DTD/svg11.dtd">
<!-- Creator: CorelDRAW X8 -->
<svg xmlns="http://www.w3.org/2000/svg" xml:space="preserve" width="930px" height="345px" version="1.1" shape-rendering="geometricPrecision" text-rendering="geometricPrecision" image-rendering="optimizeQuality" fill-rule="evenodd" clip-rule="evenodd"
viewBox="0 0 1366 507"
 xmlns:xlink="http://www.w3.org/1999/xlink">
 <g id="Warstwa_x0020_1">
  <metadata id="CorelCorpID_0Corel-Layer"/>
  <g id="_2188415758160">
   <g>
    <circle fill="#981C20" cx="172" cy="172" r="172"/>
    <g>
     <path fill="white" d="M245 240c2,0 2,0 0,0 2,0 2,0 0,0z"/>
     <path fill="white" d="M247 240c0,0 0,0 0,0 0,0 0,0 0,0z"/>
     <path fill="white" d="M247 240c0,0 2,0 0,0 2,0 0,0 0,0z"/>
     <path fill="white" d="M273 235c3,3 5,10 0,14 -4,3 -9,3 -14,3 5,0 12,-2 15,-3 4,-4 2,-11 -3,-14 -9,-7 -22,-9 -31,-9 9,-1 19,0 28,7 5,4 8,9 6,12 -1,4 -6,7 -10,7 -19,2 -36,-7 -53,-8 9,0 19,3 29,5 12,1 28,5 33,-4 1,-5 -2,-10 -9,-13 -5,-4 -12,-6 -17,-6 -5,0 -10,0 -15,2 -4,4 1,9 5,10 1,0 3,2 5,2 -4,0 -7,-2 -10,-5 -2,-2 -2,-5 -2,-7 2,-2 3,-2 7,-3 13,0 27,1 36,10 3,7 1,12 -4,14 -5,1 -12,1 -17,1 -12,-1 -24,-6 -34,-6 -10,-2 -21,0 -29,1 -11,4 -19,9 -28,14 -5,3 -10,5 -17,9 -14,3 -26,6 -39,6 -12,0 -26,-8 -30,-12 2,2 4,6 7,7 -1,0 -1,-1 -3,-1 2,0 2,1 3,1 0,0 -1,-1 -1,-1 1,1 3,1 3,3 0,0 3,2 5,2 -2,0 -5,-2 -7,-4l2 2c-2,0 -3,-2 -3,-2 1,2 3,2 5,4 1,1 3,1 5,1 -2,0 -5,-1 -7,-1 0,0 2,1 3,1 0,0 0,0 0,0 0,0 2,0 2,0l0 0c2,2 5,2 7,2 5,0 9,2 15,2 7,0 14,-2 21,-5 12,-5 22,-12 33,-17 8,-6 17,-11 27,-12 9,-4 17,-4 28,-2 10,2 24,7 37,7 5,0 12,0 17,-4 4,0 2,-8 -1,-10z"/>
     <path fill="white" d="M79 261c0,0 0,0 0,0 0,0 0,0 0,0 2,-2 3,-4 3,-5 0,0 2,-2 2,-2 2,-2 3,-7 7,-10 0,0 0,0 2,0 1,0 6,-4 10,-4 10,0 20,-3 31,-3 3,0 12,0 15,-2 0,0 0,0 -1,0 -4,0 -7,0 -11,0 -5,0 -10,0 -15,2 -2,0 -5,1 -7,1l0 0c3,0 7,-1 10,-1 9,0 16,-2 24,-4 0,0 0,0 0,0 0,0 0,0 0,0 -3,0 -7,0 -10,0 -5,0 -9,2 -14,2l0 0c7,0 14,-2 19,-2 2,0 5,0 7,-1 0,0 0,0 0,0 0,0 0,0 -2,0 -2,0 -5,0 -7,0 -3,0 -8,1 -13,1l0 0c5,0 10,-1 15,-1 2,0 5,0 7,-2 0,0 0,0 -2,0 -2,0 -5,0 -7,0 -7,0 -12,2 -19,2l0 0c7,0 14,-2 21,-4 2,0 5,0 7,-2 0,0 0,0 0,-1 -2,0 -5,0 -7,0 -2,-2 -5,-2 -9,-2 -6,0 -13,2 -18,2 -2,0 -2,0 -4,0 -3,0 -5,1 -8,1 -2,0 -6,0 -7,2 0,0 0,0 0,0 0,-2 1,-2 1,-3 0,0 0,0 2,0 2,0 4,0 5,0 4,0 7,-2 12,-2 4,0 5,-2 9,-2 10,0 19,-3 29,-3 0,0 0,0 0,-2 0,0 0,0 0,0 -3,0 -8,0 -12,0 -5,0 -10,2 -15,2l0 0c1,0 5,-2 6,-2 6,0 11,-2 14,-2 2,0 5,0 7,-1 0,0 0,0 -2,0 -5,0 -8,1 -13,1l0 0c3,0 6,-1 10,-1 2,0 5,0 5,-2 0,0 0,0 0,0 -2,0 -5,0 -7,0 -1,0 -1,0 -3,0 -2,0 -2,0 -4,0l0 0c2,0 2,0 4,0 2,0 2,0 3,0l0 0c4,0 5,-2 9,-2 0,0 0,0 0,0 0,0 0,0 0,0 -4,0 -7,0 -10,0 -4,0 -7,2 -13,2l0 0c4,0 7,-2 11,-2 5,0 8,-1 14,-1 0,0 0,0 0,0 0,0 0,0 0,0 -2,0 -6,0 -7,0 -2,0 -4,0 -5,0 -2,0 -2,0 -4,0l0 0c2,0 2,0 4,0 1,0 3,0 5,0l0 0c3,0 5,-2 8,-2 0,0 0,0 0,-2 0,0 0,0 -1,0 -4,-2 -11,2 -14,2l0 0c3,0 7,-2 10,-2 2,0 5,0 7,-2 0,0 0,0 -2,0 -3,-1 -12,2 -17,2 -5,0 -12,2 -17,2 -4,0 -5,2 -9,2 -3,0 -8,0 -12,1l0 0c0,0 2,-1 2,-1 3,1 10,-2 12,-2 7,-2 14,-4 21,-4 3,0 6,-1 8,-1 2,0 11,-2 12,-4 0,0 0,0 0,-1 -3,0 -7,0 -8,1l0 0c1,0 10,-1 12,-3 0,0 0,0 0,0l0 0c-5,-2 -12,2 -18,2l0 0c6,0 9,-2 14,-4 2,0 5,0 7,-2 0,0 0,0 -2,0 -1,0 -5,0 -6,2l0 0c1,0 8,-2 8,-2 0,0 0,0 -2,0 0,-5 -5,-1 -10,-1 -14,0 -26,5 -39,7 1,0 3,-2 3,-4 3,0 14,-3 19,-3 12,-2 24,-5 36,-7 0,0 0,0 0,0 0,0 0,0 0,0 -2,0 -2,0 -3,0l0 0c1,0 3,0 5,-2 0,0 0,0 -2,0 -3,0 -7,2 -10,2l0 0c3,0 8,-2 12,-4 0,0 0,0 0,0 0,0 0,0 0,0 -2,0 -2,0 -4,0l0 0c2,0 4,-1 5,-1 0,0 0,0 0,0 0,0 0,0 -1,0 -2,0 -2,0 -4,0l0 0c2,0 5,0 5,-2 0,0 0,0 0,0 -3,0 -5,2 -8,2l0 0c2,0 8,-2 10,-4 0,0 0,0 0,0 0,0 0,0 -2,0 -3,-5 -6,-5 -12,-3 -8,3 -18,3 -29,7 -3,1 -5,1 -8,1l0 0c0,0 0,0 1,-1 4,0 11,-2 14,-4 4,-1 5,-1 9,-1 5,-2 12,-4 17,-6 3,0 12,-1 14,-3 0,0 0,0 0,0l0 0c-2,0 -2,0 -4,0l0 0c2,0 4,0 5,-2 0,0 0,0 0,0 0,0 -1,0 -1,0l0 0c1,0 1,0 1,-1 0,0 0,0 -1,-2 1,0 1,0 1,-2 0,0 0,0 0,0 0,0 0,0 -1,0 -2,0 -4,0 -4,0l0 0c2,0 5,0 5,-2 0,0 0,0 0,0 0,0 -1,0 -1,0l0 0c0,0 1,0 1,0 0,0 0,0 0,0 0,0 0,0 0,-1 2,0 2,0 2,-2 -2,0 -2,0 -3,0l0 0c1,0 1,0 3,-2 0,0 0,0 0,-2 0,0 2,0 2,-1 0,0 0,0 0,-2 0,0 0,0 1,-2 0,0 -1,0 -1,0l0 0c1,0 1,0 3,-1 0,0 0,0 0,-2 0,0 2,0 2,0 0,-2 0,0 2,-2 0,0 0,0 0,0l0 0c-2,0 -2,0 -2,0l0 0c2,0 2,0 3,-2 0,0 0,-1 0,-1 0,0 2,0 2,-2 0,0 0,0 0,0 0,0 2,0 2,-2 0,0 0,0 -2,0l0 0c2,0 3,-1 5,-5 0,0 0,0 0,0 2,0 4,-3 4,-3 0,0 0,0 0,0 -6,1 -9,1 -14,3 -2,0 -4,2 -7,2l0 0c2,0 5,-2 7,-2 5,-2 12,-2 15,-7 0,0 0,0 0,-1 2,0 4,-4 4,-4 0,0 0,0 -2,0 -2,2 -10,4 -12,4l0 0c2,0 12,-4 14,-6 7,-1 8,-5 10,-8 2,-4 3,-4 7,-7 0,0 0,0 0,0 0,0 -2,0 -2,0l0 0c2,0 9,-3 9,-5 0,0 0,0 0,-2 1,0 5,-3 7,-5 1,-2 6,-5 8,-7 4,-2 7,-3 10,-7 0,0 0,0 0,-1 2,-2 7,-4 7,-6 0,0 0,0 0,0 0,0 -1,0 -1,0 0,0 0,0 0,0 -2,0 -2,0 -4,0 0,0 -2,0 -2,0 -1,0 -1,0 -1,0 0,0 -2,0 -2,2 -2,0 -2,0 -2,0 0,0 0,0 0,0 -1,0 -1,0 -3,0 0,0 -2,0 -2,2 -2,0 -2,0 -3,0 0,0 -2,2 -2,2 -2,-2 -3,0 -5,0 0,0 -2,0 -2,0 -3,0 -5,5 -7,5 2,-2 2,-2 4,-4 0,0 0,0 0,-1 -2,1 -5,0 -7,1 -4,4 -5,5 -9,9 2,-4 4,-5 5,-7 0,0 0,0 0,0 -3,2 -6,2 -8,3 0,0 0,0 -2,0 0,0 0,0 0,0 0,0 0,0 0,0 0,0 0,0 0,0 -2,0 -3,2 -5,2 0,0 0,0 0,2 0,0 0,0 -2,0 -1,0 -1,0 -3,2 0,0 0,0 -2,0 0,0 -2,1 -2,1 0,0 0,0 0,0 -1,0 -1,2 -3,2 0,0 0,0 -2,0 0,0 0,0 0,0 0,0 0,2 -2,2 -1,-2 -1,0 -3,1 0,0 -2,2 -2,2 0,2 -3,9 -5,9 2,-4 4,-9 5,-12 0,0 0,0 0,0 0,0 0,0 0,0 0,0 0,2 -1,2 0,0 0,0 -2,0 0,0 -4,3 -4,3 0,-2 0,0 0,-2 0,2 -1,2 -1,4 0,0 0,-2 0,-2 0,0 0,0 0,0 0,0 -4,3 -4,3 0,-1 0,0 0,-1 -8,1 -8,5 -10,8 0,2 -2,4 -2,7 -1,3 -3,9 -5,14 0,-2 0,-4 2,-4 2,-5 3,-10 3,-15 0,-2 4,-5 2,-7 0,0 0,0 -2,2 0,0 0,1 -1,1 0,-1 0,-1 0,-1 0,0 0,0 -2,1 0,0 0,2 0,2l0 0c0,-2 0,0 0,-2l0 0 0 0c0,-1 0,-1 -2,-1 -1,0 -1,3 -1,3 0,-2 0,-2 0,-2 0,0 0,0 -2,2 0,4 -2,9 -4,12 0,4 -1,9 -1,14 0,3 0,5 -2,9 0,-2 0,-6 2,-7 1,-6 1,-12 1,-18 0,-3 2,-6 2,-8 0,0 0,0 -2,0 -3,14 -5,27 -8,41 0,-3 0,-7 2,-10 0,-5 1,-12 1,-17 0,-4 2,-9 2,-12 0,0 0,0 0,0 0,0 0,0 -2,0 0,0 0,0 0,1 0,0 0,0 0,0 -1,2 -1,2 -1,4l0 0c0,-2 0,-2 0,-2 0,0 0,0 -2,0 -2,5 -2,10 -4,15 0,11 -1,21 -1,31 0,-3 0,-6 0,-10 0,-7 0,-15 1,-22 0,-4 2,-11 0,-12 -1,3 -1,7 -1,8 0,-1 1,-5 0,-7 0,0 0,0 0,0 0,0 0,2 -2,2 0,2 0,4 0,5 -2,5 -2,11 -2,14 0,7 -2,12 -2,19 0,3 0,9 0,12 -1,-3 0,-10 0,-14 0,-10 0,-22 2,-32 0,0 0,0 0,0 -3,1 -3,5 -3,6 0,-1 0,-3 0,-5 0,0 0,0 0,0 0,2 0,5 0,7 0,-2 0,-3 -2,-5l0 0 0 0c0,2 0,2 0,3l0 0c0,0 0,0 0,-1 -5,1 -3,5 -5,8 0,-1 0,-5 0,-7 0,0 0,0 -2,0 0,4 0,9 0,13 0,-2 0,-7 0,-9 0,0 0,0 0,0 -2,2 0,3 -2,5 0,0 0,-2 0,-3 0,0 0,0 0,0 -3,1 -1,5 -1,8 0,-2 0,-5 -2,-7 0,0 0,0 -2,0 2,4 2,7 2,9 -2,-2 0,-5 -2,-7 0,0 0,0 -1,2 0,2 0,5 0,8 0,-1 0,-5 0,-6 0,0 0,0 -2,0 -2,5 0,8 0,13 0,7 0,14 2,21 0,2 1,5 1,8 0,4 0,11 2,12 0,0 0,0 0,0 0,0 0,2 -2,2 0,0 0,0 0,0 0,-3 -1,-7 -1,-10 0,-9 -4,-17 -4,-26 0,-3 0,-12 -2,-15 0,0 0,0 -1,0 0,3 0,7 0,10 -2,-2 0,-7 -2,-9 0,0 0,0 -2,0 0,4 0,6 0,9 0,3 2,7 2,10 0,-1 0,-5 0,-7 0,-3 -2,-6 -2,-10 0,0 0,0 -1,0 0,0 0,0 0,2 0,2 0,3 0,5 0,5 1,10 1,15 0,-5 0,-10 0,-12 0,-3 -1,-6 -1,-8 0,0 0,0 0,0 0,0 0,0 -2,0 0,3 2,8 2,12 0,3 1,7 1,10 0,7 2,12 2,19 0,3 2,7 2,10 0,0 1,2 1,2 0,0 0,2 -1,2 0,0 0,0 0,0l0 0c0,-5 -2,-11 -4,-16 -1,-12 -5,-24 -7,-36 0,0 0,0 0,0 0,0 0,0 -1,0 0,4 1,9 1,12 0,4 2,7 2,11 0,-6 -2,-11 -2,-14 0,-2 0,-5 -1,-7 0,0 0,0 0,2 0,3 1,13 1,17 2,5 2,10 4,15 0,2 0,4 0,5 2,4 2,9 2,12 0,2 1,4 1,6 0,0 0,0 0,0 0,0 -1,1 -1,1 0,0 0,0 0,0 0,-1 -2,-5 -2,-7 0,-3 0,-6 -2,-10 -2,-3 -2,-8 -3,-14 -2,-5 -4,-10 -4,-17 0,-1 -1,-3 -1,-5 0,0 0,0 0,0 0,0 0,0 -2,0 2,5 2,10 3,16 0,3 2,6 2,10 -2,-4 -2,-7 -2,-10 -1,-4 -3,-9 -3,-12 0,0 0,0 0,0 0,0 0,0 0,1 0,4 2,9 2,12 1,7 1,14 5,21 0,2 0,5 1,8 2,4 2,7 2,11 0,0 2,3 2,5 0,0 -2,2 -2,2l0 0c0,-6 -3,-11 -5,-14 -2,-5 -2,-12 -5,-17 -2,-5 -2,-11 -4,-14 0,-7 -1,-9 -1,-12 0,0 0,0 0,0 0,0 0,0 -2,0 2,5 2,10 3,14 2,3 4,10 4,13 -4,-5 -4,-12 -5,-18 0,-2 0,-6 -2,-7l0 0 0 0c0,0 0,0 0,0 2,3 2,7 2,10 1,3 3,7 3,10 -2,-3 -2,-8 -3,-12 0,-1 0,-5 -2,-7 0,0 0,0 -2,0 0,2 0,4 2,6 0,3 2,5 2,8 0,2 0,2 0,4 0,5 1,12 1,15 -3,-7 -3,-14 -6,-21 0,-1 0,-5 -4,-6 0,0 0,0 0,0 2,6 4,13 5,20 2,4 4,7 4,10 -4,-6 -5,-13 -7,-20 -2,-4 0,-7 -4,-9l0 0 0 0c0,0 0,0 0,0 0,4 2,9 4,12 3,11 5,21 8,31 2,4 2,7 4,10 0,2 2,2 2,4 0,0 0,2 -2,2l0 0c0,-4 -4,-9 -5,-14 -4,-9 -5,-16 -9,-24 -2,-4 -3,-12 -5,-16 0,0 0,0 -2,0 0,2 0,4 2,6 2,5 3,10 5,15 2,3 5,10 5,12 -3,-7 -5,-14 -8,-21 -2,-1 -2,-6 -5,-8l0 0 0 0c0,0 0,0 0,0 0,2 0,3 1,5 2,5 4,9 5,14 2,3 4,7 4,10 -4,-5 -5,-12 -7,-19 -3,-2 -3,-5 -5,-7 0,0 0,0 0,2 2,3 2,9 3,12 4,9 7,19 11,27 1,4 3,12 6,14 -1,4 -5,7 -6,12l0 0c-2,2 -2,4 -2,5 -2,0 -2,2 0,4 -2,-2 -2,-2 0,0 -2,1 -2,1 -2,1 0,0 0,0 2,-1z"/>
    </g>
   </g>
   <g>
    <path fill="black" d="M407 278l72 -220 56 0 69 220 -52 0 -13 -45 -67 0 -14 45 -51 0zm77 -86l43 0 -21 -70 -22 70z"/>
    <path fill="black" d="M612 134l0 -19c0,-38 21,-57 60,-58 4,0 9,0 12,0 31,0 57,3 76,10l0 38c-21,-2 -38,-4 -52,-4 -13,0 -22,0 -22,0 -8,0 -15,2 -19,4 -3,1 -5,6 -5,15l0 7c0,7 2,12 3,14 4,3 11,5 18,5l32 0c14,0 26,3 35,10 13,12 20,28 20,50l0 12c0,27 -8,46 -27,56 -9,6 -21,7 -35,7 -24,0 -41,0 -53,-1 -12,-2 -24,-4 -36,-9l0 -38c22,2 48,4 77,4 7,0 12,-2 18,-4 3,-1 5,-7 5,-12l0 -8c0,-5 -2,-11 -4,-14 -3,-3 -7,-3 -13,-3l-31 0c-14,0 -24,-2 -33,-7 -9,-5 -14,-11 -17,-17 -4,-7 -7,-14 -7,-19 0,-9 -2,-14 -2,-19z"/>
    <polygon fill="black" points="786,278 786,58 835,58 911,187 911,58 961,58 961,278 911,278 834,151 834,278 "/>
    <path fill="black" d="M981 209c-2,-13 -2,-27 -2,-41 0,-14 0,-26 2,-38 2,-10 4,-20 7,-27 3,-9 7,-16 10,-21 4,-5 9,-10 14,-13 5,-4 10,-6 17,-7 10,-4 22,-5 34,-5 12,0 21,0 28,1 5,0 12,2 19,4 7,1 12,5 17,7 5,3 8,6 14,13 5,7 5,12 8,21 5,17 9,39 9,67 0,32 -5,58 -14,77 -5,10 -12,17 -22,24 -11,5 -28,9 -52,9 -24,0 -41,-4 -51,-9 -10,-5 -19,-14 -24,-22 -9,-14 -12,-26 -14,-40zm52 -91c-2,5 -4,12 -4,21 -2,9 -2,17 -2,27 0,11 0,19 0,24 0,6 0,11 2,16 0,5 2,8 4,12 1,3 3,5 5,8 1,2 5,4 7,6 5,1 13,3 22,3 8,0 15,0 20,-2 6,-1 9,-5 12,-10 4,-5 6,-12 7,-19 2,-8 2,-19 2,-32 0,-14 0,-24 -2,-31 -1,-9 -1,-14 -3,-19 -2,-5 -4,-9 -7,-12 -3,-2 -7,-4 -10,-5 -5,-2 -11,-4 -17,-4 -7,0 -12,0 -16,2 -3,0 -7,2 -10,5 -5,2 -9,5 -10,10z"/>
    <path fill="black" d="M1173 278l0 -220 96 0c21,0 36,5 47,16 10,10 17,29 17,53 0,21 -4,38 -9,46 -3,5 -7,11 -10,12 -4,2 -9,5 -14,7l40 84 -57 0 -33 -80 -29 -4 0 84 -48 0 0 2zm50 -122l41 0c7,0 12,-2 16,-5 3,-3 3,-10 3,-21 0,-10 -2,-17 -5,-22 -4,-3 -9,-7 -16,-7l-41 0 0 55 2 0z"/>
   </g>
   <polygon fill="black" fill-rule="nonzero" points="373,350 351,350 351,403 342,403 342,350 320,350 320,344 373,344 "/>
   <path id="1" fill="black" fill-rule="nonzero" d="M423 396l0 7 -38 0 0 -23 -8 4 0 -6c0,-1 0,-1 1,-1l7 -4 0 -29 9 0 0 25 18 -8 0 6c0,1 0,1 -1,2l-17 7 0 20 29 0z"/>
   <path id="2" fill="black" fill-rule="nonzero" d="M458 396c3,0 6,0 8,-1 2,-1 4,-2 5,-3 2,-2 3,-4 4,-6 1,-2 1,-4 1,-7l0 -35 9 0 0 35c0,4 0,7 -2,10 -1,3 -3,5 -5,7 -2,3 -5,4 -8,5 -4,2 -7,2 -12,2 -4,0 -7,0 -11,-2 -3,-1 -6,-2 -8,-5 -3,-2 -4,-4 -6,-7 -1,-3 -1,-6 -1,-10l0 -35 9 0 0 35c0,3 0,5 1,7 1,2 2,4 3,6 2,1 4,2 6,3 2,1 5,1 7,1z"/>
   <path id="3" fill="black" fill-rule="nonzero" d="M573 344l0 59 -8 0 0 -44c0,0 0,-1 0,-2 0,0 0,-1 0,-2l-23 37c-1,2 -2,2 -3,2l-2 0c-1,0 -2,0 -3,-2l-23 -37c0,2 0,3 0,4l0 44 -8 0 0 -59 7 0c0,0 1,0 1,0 1,0 1,0 2,1l23 36c0,1 1,2 1,2 0,1 1,2 1,3 0,-1 1,-2 1,-3 0,0 1,-1 1,-2l23 -36c0,-1 1,-1 1,-1 1,0 1,0 2,0l7 0z"/>
   <path id="4" fill="black" fill-rule="nonzero" d="M627 381l-11 -24c0,-1 0,-2 -1,-3 0,-1 0,-2 -1,-3 0,2 -1,4 -2,6l-10 24 25 0zm19 22l-7 0c-1,0 -2,-1 -2,-1 -1,0 -1,-1 -1,-1l-6 -15 -31 0 -6 15c0,0 0,1 -1,1 -1,0 -1,1 -2,1l-7 0 27 -59 9 0 27 59z"/>
   <path id="5" fill="black" fill-rule="nonzero" d="M702 390c0,0 1,1 1,1l4 3c-3,3 -7,5 -10,7 -4,1 -9,2 -15,2 -5,0 -9,0 -13,-2 -4,-1 -7,-3 -10,-6 -3,-3 -5,-6 -6,-10 -2,-3 -3,-7 -3,-12 0,-4 1,-8 3,-12 1,-4 4,-7 6,-10 3,-2 7,-4 11,-6 4,-1 8,-2 13,-2 5,0 9,1 13,2 4,1 7,3 10,5l-3 4c-1,0 -1,1 -1,1 0,0 -1,0 -1,0 -1,0 -2,0 -2,-1 -1,0 -2,-1 -4,-2 -1,0 -3,-1 -5,-1 -2,-1 -4,-1 -7,-1 -3,0 -6,0 -9,1 -3,1 -6,3 -8,5 -2,2 -4,4 -5,7 -1,3 -1,7 -1,10 0,4 0,7 1,10 2,3 3,5 5,7 2,2 5,4 8,5 3,1 6,1 9,1 2,0 4,0 5,0 2,0 3,0 5,-1 1,0 2,-1 4,-2 1,0 2,-1 3,-2 1,0 1,-1 2,-1z"/>
   <path id="6" fill="black" fill-rule="nonzero" d="M763 347c0,0 0,1 -1,2l-38 47 39 0 0 7 -51 0 0 -4c0,0 0,0 1,-1 0,0 0,-1 0,-1l38 -47 -37 0 0 -6 49 0 0 3z"/>
   <path id="7" fill="black" fill-rule="nonzero" d="M856 374c3,0 5,0 7,-1 2,0 4,-1 5,-2 1,-1 2,-3 3,-4 1,-2 1,-3 1,-5 0,-4 -1,-7 -4,-9 -2,-2 -6,-3 -12,-3l-11 0 0 24 11 0zm0 -30c4,0 8,0 11,1 3,1 6,2 8,4 2,1 4,3 5,5 1,3 1,5 1,8 0,3 0,5 -1,7 -1,3 -3,5 -5,6 -2,2 -5,3 -8,4 -3,1 -7,2 -11,2l-11 0 0 22 -9 0 0 -59 20 0z"/>
   <path id="8" fill="black" fill-rule="nonzero" d="M913 372c2,0 5,0 7,-1 2,0 3,-1 5,-2 1,-1 2,-2 3,-4 0,-1 1,-3 1,-4 0,-4 -1,-7 -4,-8 -3,-2 -7,-3 -12,-3l-10 0 0 22 10 0zm31 31l-8 0c-2,0 -3,-1 -4,-2l-17 -21c-1,-1 -2,-1 -2,-2 -1,0 -2,0 -3,0l-7 0 0 25 -9 0 0 -59 19 0c4,0 8,0 11,1 3,0 6,2 8,3 2,1 3,3 4,5 1,2 2,4 2,7 0,2 -1,4 -1,6 -1,2 -2,3 -4,5 -1,1 -3,2 -5,3 -2,1 -4,2 -7,3 1,0 2,1 3,2l20 24z"/>
   <path id="9" fill="black" fill-rule="nonzero" d="M999 347c0,0 0,1 -1,2l-38 47 39 0 0 7 -51 0 0 -4c0,0 0,0 0,-1 1,0 1,-1 1,-1l38 -47 -37 0 0 -6 49 0 0 3z"/>
   <path id="10" fill="black" fill-rule="nonzero" d="M1037 379l0 24 -9 0 0 -24 -24 -35 8 0c0,0 1,0 1,0 1,0 1,1 2,1l15 23c1,1 1,2 2,3 0,1 0,2 1,3 0,-1 1,-2 1,-3 0,-1 1,-2 1,-3l16 -23c0,0 0,0 1,-1 0,0 1,0 2,0l8 0 -25 35z"/>
   <path id="11" fill="black" fill-rule="nonzero" d="M1104 353c0,0 0,1 -1,1 0,0 0,0 -1,0 0,0 -1,0 -2,-1 0,0 -1,-1 -2,-1 -1,-1 -3,-1 -4,-2 -2,0 -4,0 -6,0 -2,0 -4,0 -5,0 -2,1 -3,1 -4,2 -1,1 -2,2 -2,3 -1,1 -1,2 -1,4 0,1 0,3 1,4 1,1 2,2 4,3 1,0 3,1 5,2 2,0 4,1 6,1 2,1 4,2 6,2 2,1 3,2 5,3 1,1 3,3 4,5 1,1 1,3 1,6 0,2 -1,5 -2,7 -1,2 -2,4 -4,6 -2,2 -4,3 -7,4 -3,1 -6,1 -10,1 -4,0 -8,0 -11,-2 -4,-1 -7,-3 -10,-5l3 -4c0,-1 1,-1 1,-1 0,0 1,0 1,0 1,0 1,0 2,0 0,0 1,1 1,1 1,1 2,1 3,2 0,0 1,1 2,1 2,1 3,1 4,1 1,0 3,1 5,1 2,0 4,-1 6,-1 1,-1 3,-1 4,-2 1,-1 2,-2 3,-4 0,-1 0,-3 0,-4 0,-2 0,-3 -1,-5 -1,-1 -2,-2 -4,-2 -1,-1 -3,-2 -5,-2 -2,-1 -4,-1 -6,-2 -2,-1 -4,-1 -6,-2 -1,-1 -3,-2 -5,-3 -1,-1 -2,-3 -3,-4 -1,-2 -2,-4 -2,-7 0,-2 1,-4 2,-6 1,-2 2,-4 4,-5 1,-2 4,-3 6,-4 3,-1 6,-1 9,-1 4,0 7,0 10,2 3,1 6,2 8,4l-2 4z"/>
   <polygon id="12" fill="black" fill-rule="nonzero" points="1131,403 1122,403 1122,344 1131,344 "/>
   <path id="13" fill="black" fill-rule="nonzero" d="M1192 415c-1,0 -2,1 -3,1 -2,0 -3,1 -5,1 -3,0 -5,-1 -7,-2 -1,-1 -2,-2 -2,-4 0,-2 1,-3 2,-5 1,-1 3,-2 5,-3l-32 0 0 -59 41 0 0 6 -32 0 0 20 26 0 0 6 -26 0 0 20 32 0 0 7 -4 0c-1,0 -1,0 -2,1 -1,0 -1,1 -2,1 0,1 -1,1 -1,2 0,1 -1,1 -1,2 0,1 1,2 2,2 0,1 1,1 3,1 0,0 1,0 1,0 1,0 1,0 2,0 0,0 0,0 0,-1 1,0 1,0 1,0 0,0 0,0 0,0 1,1 1,1 1,1l1 3z"/>
   <path id="14" fill="black" fill-rule="nonzero" d="M1258 374l0 23c-3,2 -6,4 -10,5 -4,1 -8,1 -13,1 -5,0 -10,0 -15,-2 -4,-1 -8,-3 -11,-6 -3,-3 -5,-6 -7,-10 -1,-3 -2,-7 -2,-12 0,-4 1,-8 2,-12 2,-4 4,-7 7,-10 3,-2 7,-4 11,-6 4,-1 9,-2 14,-2 3,0 5,0 7,0 3,1 5,1 7,2 2,1 4,1 5,2 2,1 3,2 5,3l-3 4c0,1 -1,1 -1,1 -1,0 -2,0 -2,0 -1,-1 -2,-1 -3,-2 -1,0 -2,-1 -4,-1 -1,-1 -3,-1 -4,-2 -2,0 -5,0 -7,0 -4,0 -7,0 -10,1 -4,2 -6,3 -8,5 -2,2 -4,5 -5,7 -1,3 -2,7 -2,10 0,4 1,7 2,10 1,3 3,5 5,8 2,2 5,3 8,4 3,1 7,2 11,2 3,0 6,-1 8,-1 3,-1 5,-2 7,-3l0 -13 -10 0c-1,0 -1,0 -2,0 0,0 0,-1 0,-1l0 -5 20 0z"/>
   <path id="15" fill="black" fill-rule="nonzero" d="M1313 396l0 7 -38 0 0 -23 -9 4 0 -6c0,-1 1,-1 1,-1l8 -4 0 -29 9 0 0 25 18 -8 0 6c0,1 0,1 -1,2l-17 7 0 20 29 0z"/>
   <path id="16" fill="black" fill-rule="nonzero" d="M1341 379l0 24 -9 0 0 -24 -25 -35 8 0c1,0 2,0 2,0 1,0 1,1 1,1l16 23c0,1 1,2 1,3 1,1 1,2 2,3 0,-1 0,-2 1,-3 0,-1 1,-2 1,-3l16 -23c0,0 0,0 1,-1 0,0 1,0 2,0l8 0 -25 35z"/>
   <path id="17" fill="black" fill-rule="nonzero" d="M350 472c0,4 0,7 -1,9 -1,3 -2,5 -4,7 -2,2 -4,3 -7,4 -2,1 -5,1 -9,1 -3,0 -6,0 -9,-1 0,-1 0,-1 0,-2 0,-1 0,-2 0,-3 0,0 0,0 1,-1 0,0 1,0 1,0 1,0 2,0 3,0 0,1 2,1 3,1 2,0 4,-1 6,-1 1,-1 3,-2 4,-3 1,-1 2,-2 2,-4 1,-2 1,-4 1,-7l0 -38 9 0 0 38z"/>
   <path id="18" fill="black" fill-rule="nonzero" d="M409 505c-1,0 -2,1 -3,1 -2,1 -3,1 -5,1 -3,0 -5,-1 -6,-2 -2,-1 -3,-2 -3,-4 0,-2 1,-3 2,-5 1,-1 3,-2 5,-3l-32 0 0 -59 41 0 0 6 -32 0 0 20 26 0 0 6 -26 0 0 20 32 0 0 7 -4 0c-1,0 -1,0 -2,1 -1,0 -1,1 -2,1 0,1 -1,1 -1,2 0,1 -1,1 -1,2 0,1 1,2 2,2 0,1 1,1 3,1 0,0 1,0 2,0 0,0 0,0 1,0 0,0 0,0 0,-1 1,0 1,0 1,0 0,0 0,0 1,0 0,1 0,1 0,1l1 3z"/>
   <path id="19" fill="black" fill-rule="nonzero" d="M466 437c0,1 0,1 -1,2l-38 47 38 0 0 7 -50 0 0 -3c0,-1 0,-1 0,-2 0,0 1,0 1,-1l38 -47 -37 0 0 -6 49 0 0 3z"/>
   <path id="20" fill="black" fill-rule="nonzero" d="M503 469l0 24 -9 0 0 -24 -25 -35 8 0c1,0 1,0 2,0 0,1 1,1 1,2l16 22c0,1 1,2 1,3 1,1 1,2 1,3 1,-1 1,-2 2,-3 0,-1 0,-2 1,-3l15 -22c1,-1 1,-1 1,-2 1,0 2,0 2,0l8 0 -24 35z"/>
   <path id="21" fill="black" fill-rule="nonzero" d="M545 460l4 0c1,0 2,-1 2,-1 1,0 2,-1 2,-1l23 -22c0,-1 1,-2 2,-2 0,0 1,0 2,0l8 0 -26 25c0,1 -1,1 -1,2 -1,0 -2,0 -2,1 1,0 1,0 2,1 1,0 1,1 2,2l27 28 -8 0c-1,0 -1,0 -2,0 0,-1 0,-1 -1,-1 0,0 0,0 -1,0 0,-1 0,-1 0,-1l-23 -23c-1,-1 -2,-2 -2,-2 -1,0 -2,0 -4,0l-4 0 0 27 -9 0 0 -59 9 0 0 26z"/>
   <path id="22" fill="black" fill-rule="nonzero" d="M634 471l-11 -24c0,-1 0,-2 -1,-3 0,-1 0,-2 -1,-3 0,2 -1,4 -2,6l-10 24 25 0zm19 22l-7 0c-1,0 -2,-1 -2,-1 -1,0 -1,-1 -1,-1l-6 -14 -31 0 -6 14c0,0 0,1 -1,1 -1,0 -1,1 -2,1l-7 0 27 -59 9 0 27 59z"/>
   <path id="23" fill="black" fill-rule="nonzero" d="M737 434l0 59 -4 0c-1,0 -2,0 -2,-1 -1,0 -1,0 -2,-1l-39 -44c1,0 1,1 1,2 0,0 0,1 0,2l0 42 -8 0 0 -59 4 0c1,0 1,0 1,0 1,0 1,0 1,0 0,0 1,0 1,0 0,1 0,1 1,1l38 44c0,0 0,-1 0,-2 0,0 0,-1 0,-2l0 -41 8 0z"/>
   <path id="24" fill="black" fill-rule="nonzero" d="M816 463c0,5 0,9 -2,12 -2,4 -4,7 -7,10 -3,3 -6,5 -10,6 -4,2 -9,2 -14,2 -5,0 -9,0 -13,-2 -4,-1 -8,-3 -11,-6 -3,-3 -5,-6 -6,-10 -2,-3 -3,-7 -3,-12 0,-4 1,-8 3,-12 1,-4 3,-7 6,-10 3,-2 7,-4 11,-6 4,-1 8,-2 13,-2 5,0 10,1 14,2 4,2 7,4 10,6 3,3 5,6 7,10 2,4 2,8 2,12zm-9 0c0,-3 0,-7 -2,-10 -1,-2 -2,-5 -4,-7 -2,-2 -5,-3 -8,-4 -3,-2 -6,-2 -10,-2 -3,0 -7,0 -10,2 -2,1 -5,2 -7,4 -2,2 -4,5 -5,7 -1,3 -2,7 -2,10 0,4 1,7 2,10 1,3 3,5 5,7 2,2 5,4 7,5 3,1 7,1 10,1 4,0 7,0 10,-1 3,-1 6,-3 8,-5 2,-2 3,-4 4,-7 2,-3 2,-6 2,-10z"/>
   <path id="25" fill="black" fill-rule="nonzero" d="M848 462c3,0 5,0 7,-1 2,0 4,-1 5,-2 2,-1 3,-2 3,-4 1,-1 1,-3 1,-4 0,-4 -1,-7 -4,-8 -2,-2 -6,-3 -12,-3l-9 0 0 22 9 0zm31 31l-8 0c-2,0 -3,-1 -4,-2l-17 -21c-1,-1 -1,-1 -2,-2 0,0 -1,0 -3,0l-6 0 0 25 -10 0 0 -59 19 0c5,0 8,0 11,1 4,1 6,2 8,3 2,1 4,3 5,5 1,2 1,4 1,7 0,2 0,4 -1,6 -1,2 -2,3 -3,5 -2,1 -3,2 -5,3 -3,1 -5,2 -7,3 1,0 2,1 3,2l19 24z"/>
   <path id="26" fill="black" fill-rule="nonzero" d="M974 434l-21 59 -8 0 -17 -45c0,-1 0,-1 0,-2 0,0 -1,-1 -1,-1 0,0 0,1 0,1 0,1 0,1 -1,2l-17 45 -8 0 -21 -59 8 0c0,0 1,0 2,0 0,1 1,1 1,2l14 41c0,0 0,1 0,2 0,1 1,2 1,3 0,-1 0,-2 1,-3 0,-1 0,-2 0,-2l16 -41c0,-1 1,-1 1,-2 1,0 1,0 2,0l3 0c1,0 1,0 2,0 0,1 1,1 1,2l16 41c0,0 0,1 0,2 1,1 1,2 1,2 0,0 0,-1 1,-2 0,-1 0,-2 0,-2l14 -41c0,-1 1,-1 1,-2 1,0 1,0 2,0l7 0z"/>
   <polygon id="27" fill="black" fill-rule="nonzero" points="1026,486 1026,493 984,493 984,434 1026,434 1026,440 994,440 994,460 1020,460 1020,466 994,466 994,486 "/>
   <path id="28" fill="black" fill-rule="nonzero" d="M1073 443c0,0 -1,1 -1,1 0,0 -1,0 -1,0 -1,0 -1,0 -2,-1 -1,0 -2,-1 -3,-1 -1,-1 -2,-1 -4,-2 -1,0 -3,0 -5,0 -2,0 -4,0 -5,0 -2,1 -3,1 -4,2 -1,1 -2,2 -3,3 0,1 -1,3 -1,4 0,1 1,3 2,4 1,1 2,2 4,3 1,0 3,1 5,2 2,0 4,1 6,1 2,1 4,2 6,2 1,1 3,2 5,3 1,1 2,3 3,5 1,1 2,3 2,6 0,2 -1,5 -2,7 -1,2 -2,4 -4,6 -2,2 -4,3 -7,4 -3,1 -6,1 -10,1 -4,0 -8,0 -12,-2 -3,-1 -6,-3 -9,-5l3 -4c0,0 0,-1 1,-1 0,0 0,0 1,0 0,0 1,0 1,0 1,0 1,1 2,1 1,1 1,1 2,2 1,0 2,1 3,1 1,1 2,1 4,1 1,1 3,1 4,1 3,0 5,-1 6,-1 2,-1 3,-1 5,-2 1,-1 2,-2 2,-4 1,-1 1,-2 1,-4 0,-2 0,-3 -1,-5 -1,-1 -2,-2 -4,-2 -1,-1 -3,-2 -5,-2 -2,-1 -4,-1 -6,-2 -2,-1 -4,-1 -6,-2 -2,-1 -4,-2 -5,-3 -2,-1 -3,-2 -4,-4 -1,-2 -1,-4 -1,-7 0,-2 0,-4 1,-6 1,-2 3,-4 4,-5 2,-2 4,-3 7,-4 3,-1 5,-1 9,-1 4,0 7,1 10,2 3,1 6,2 8,4l-2 4z"/>
   <path id="29" fill="black" fill-rule="nonzero" d="M1099 460l3 0c1,0 2,-1 3,-1 1,0 1,-1 2,-1l22 -22c1,-1 1,-2 2,-2 1,0 2,0 3,0l7 0 -25 25c-1,1 -1,1 -2,2 -1,0 -1,0 -2,1 1,0 2,0 2,1 1,0 2,1 2,2l27 28 -8 0c0,0 -1,0 -1,0 -1,-1 -1,-1 -1,-1 -1,0 -1,0 -1,0 0,-1 -1,-1 -1,-1l-23 -23c-1,-1 -1,-2 -2,-2 -1,0 -2,0 -3,0l-4 0 0 27 -9 0 0 -59 9 0 0 26z"/>
   <polygon id="30" fill="black" fill-rule="nonzero" points="1161,493 1152,493 1152,434 1161,434 "/>
   <polygon id="31" fill="black" fill-rule="nonzero" points="1219,486 1219,493 1178,493 1178,434 1219,434 1219,440 1187,440 1187,460 1213,460 1213,466 1187,466 1187,486 "/>
   <path id="32" fill="black" fill-rule="nonzero" d="M1285 464l0 23c-3,2 -7,4 -10,5 -4,1 -9,1 -13,1 -6,0 -10,0 -15,-2 -4,-1 -8,-3 -11,-6 -3,-3 -5,-6 -7,-10 -2,-3 -2,-7 -2,-12 0,-4 0,-8 2,-12 2,-4 4,-7 7,-10 3,-2 6,-4 11,-6 4,-1 9,-2 14,-2 3,0 5,0 7,1 3,0 5,0 7,1 2,1 3,1 5,2 2,1 3,2 5,3l-3 4c0,1 -1,1 -1,1 -1,0 -2,0 -3,0 0,-1 -1,-1 -2,-2 -1,0 -2,-1 -4,-1 -1,-1 -3,-1 -5,-2 -2,0 -4,0 -6,0 -4,0 -8,0 -11,2 -3,1 -5,2 -7,4 -3,2 -4,5 -5,8 -2,2 -2,6 -2,9 0,4 0,7 2,10 1,3 3,6 5,8 2,2 5,3 8,4 3,1 7,2 11,2 3,0 6,0 8,-1 2,-1 5,-2 7,-3l0 -13 -10 0c-1,0 -1,0 -2,0 0,0 0,-1 0,-1l0 -5 20 0z"/>
   <path id="33" fill="black" fill-rule="nonzero" d="M1361 463c0,5 0,9 -2,12 -2,4 -4,7 -7,10 -3,3 -6,5 -10,6 -4,2 -9,2 -14,2 -5,0 -9,0 -13,-2 -4,-1 -8,-3 -11,-6 -3,-3 -5,-6 -7,-10 -1,-3 -2,-7 -2,-12 0,-4 1,-8 2,-12 2,-4 4,-7 7,-10 3,-2 7,-4 11,-6 4,-1 8,-2 13,-2 5,0 10,1 14,2 4,2 7,4 10,6 3,3 5,6 7,10 2,4 2,8 2,12zm-9 0c0,-3 -1,-7 -2,-10 -1,-2 -2,-5 -4,-7 -3,-2 -5,-3 -8,-4 -3,-2 -6,-2 -10,-2 -3,0 -7,0 -10,2 -3,1 -5,2 -7,4 -2,2 -4,5 -5,7 -1,3 -2,7 -2,10 0,4 1,7 2,10 1,3 3,5 5,7 2,2 4,4 7,5 3,1 7,1 10,1 4,0 7,0 10,-1 3,-1 5,-3 8,-5 2,-2 3,-4 4,-7 1,-3 2,-6 2,-10z"/>
  </g>
 </g>
</svg>
