<?xml version="1.0" encoding="utf-8"?>
<!-- Generator: Adobe Illustrator 16.0.0, SVG Export Plug-In . SVG Version: 6.00 Build 0)  -->
<!DOCTYPE svg PUBLIC "-//W3C//DTD SVG 1.1//EN" "http://www.w3.org/Graphics/SVG/1.1/DTD/svg11.dtd">
<svg version="1.1" id="Isolation_Mode" xmlns="http://www.w3.org/2000/svg" xmlns:xlink="http://www.w3.org/1999/xlink" x="0px"
	 y="0px" width="560.6px" height="293.3px" viewBox="0 0 560.6 293.3" enable-background="new 0 0 560.6 293.3"
	 xml:space="preserve">
<path fill="#1F2A4E" d="M133.7,101h10.5v43.8h-10.5v-16.1h-19.1v16.1H104V101h10.5v18.3h19.1V101H133.7z M181.5,131.6l9.6,13.2H178
	l-7.2-10.9h-7.7v10.9h-10.7V101c0,0,16.1,0,21.3,0c9,0,15.7,7.7,15.7,17.3C189.4,124.6,186.2,129.1,181.5,131.6z M178.5,118.2
	c0-3.6-2.9-6.5-6.5-6.5h-9v12.5h8.9C175.5,124.2,178.5,121.9,178.5,118.2z M104,192.3h33v-9.4h-22.5v-7.8h17.7v-9.4h-17.7v-7.8H137
	v-9.4h-33V192.3z M183.6,148.5l-14,14.2l-14.3-14l-7.6,7.6l14.2,14l-14.2,14.3l7.6,7.6l14.3-14.1l14,14.2l7.6-7.6l-14.1-14.2
	l14.1-14.3L183.6,148.5z M246.7,146.6c0,55.1-44.7,99.7-99.9,99.7s-99.9-44.6-99.9-99.7c0-55.1,44.7-99.7,99.9-99.7
	S246.7,91.6,246.7,146.6z M238.5,146.6c0-50.4-41.1-91.5-91.7-91.5c-50.5,0-91.7,41-91.7,91.5c0,50.4,41.1,91.5,91.7,91.5
	S238.5,197.1,238.5,146.6z M290.6,101c-1,0-1.8,0.8-1.8,1.8v10.5h-15v-10.5c0-1-0.8-1.8-1.8-1.8s-1.8,0.8-1.8,1.8v24.3
	c0,1,0.8,1.8,1.8,1.8s1.8-0.8,1.8-1.8v-10.5h15v10.5c0,1,0.8,1.8,1.8,1.8s1.8-0.8,1.8-1.8v-24.3C292.4,101.8,291.6,101,290.6,101z
	 M322.4,102.8c0-1-0.8-1.8-1.8-1.8s-1.8,0.8-1.8,1.8v15.7c0,4.9-3.9,7.3-7.7,7.3c-3.9,0-7.7-2.4-7.7-7.3v-15.7c0-1-0.8-1.8-1.8-1.8
	s-1.8,0.8-1.8,1.8v15.6c0,7.4,6,10.7,11.3,10.7s11.3-3.3,11.3-10.7V102.8z M347.5,127.2l9.1-22.5v22.4c0,1,0.8,1.8,1.8,1.8
	s1.8-0.8,1.8-1.8v-23.6c0-1.4-1.1-2.6-2.6-2.6h-1.3c-1.1,0-2,0.7-2.4,1.7l-9,22.3l-9-22.3c-0.4-0.9-1.3-1.7-2.4-1.7h-1.3
	c-1.4,0-2.6,1.2-2.6,2.6v23.6c0,1,0.8,1.8,1.8,1.8s1.8-0.8,1.8-1.8v-22.4l9.1,22.5c0.4,1,1.4,1.7,2.5,1.7
	C346.1,128.9,347,128.2,347.5,127.2z M364.7,127.1c0-0.2,0.1-0.5,0.2-0.8l10.1-23.7c0.4-0.8,1.1-1.6,2.3-1.6h0.4
	c1.2,0,1.9,0.8,2.3,1.6l10.1,23.7c0.1,0.3,0.2,0.6,0.2,0.8c0,1-0.7,1.8-1.8,1.8c-0.7,0-1.4-0.4-1.7-1.1l-2.6-6.2h-13.4l-2.6,6.2
	c-0.3,0.7-0.9,1.1-1.7,1.1C365.3,128.9,364.7,128.1,364.7,127.1z M372.1,118.4h10.6l-5.3-12.8L372.1,118.4z M396.3,128.9
	c1,0,1.8-0.8,1.8-1.8v-21.3l15.3,22.1c0.5,0.6,1.2,1.1,2.1,1.1h0.5c1.4,0,2.6-1.1,2.6-2.6v-23.5c0-1-0.8-1.8-1.8-1.8
	s-1.8,0.8-1.8,1.8v21.3l-15.2-21.9c-0.6-0.7-1.3-1.2-2.2-1.2h-0.5c-1.4,0-2.6,1.2-2.6,2.6v23.6C394.6,128.1,395.4,128.9,396.3,128.9
	z M286.8,148c4.4,1.1,4.9,6.8,4.9,9v1.8c0,1-0.8,1.8-1.8,1.8c-1.1,0-1.8-0.7-1.8-1.8v-1.2c0-2.6-0.2-8-6.1-8h-8.2v9.2
	c0,1-0.8,1.8-1.8,1.8s-1.8-0.8-1.8-1.8v-24.1c0-1,0.8-1.8,1.8-1.8h9.2c7.5,0,10.7,3.5,10.7,8C292,143.9,290.3,146.8,286.8,148z
	 M288.4,141.1c0-2.9-1.7-4.9-7.6-4.9h-6.9v10h7.1C285.5,146.2,288.4,144.5,288.4,141.1z M316,136.2c0.9,0,1.7-0.7,1.7-1.7
	c0-0.9-0.8-1.7-1.7-1.7h-15.8c-1,0-1.8,0.8-1.8,1.8v23.9c0,1,0.8,1.8,1.8,1.8H316c0.9,0,1.7-0.7,1.7-1.7S317,157,316,157h-14v-8.8
	h12.6c1,0,1.7-0.7,1.7-1.7c0-1-0.7-1.7-1.7-1.7H302v-8.7h14V136.2z M332.6,135.7c2.4,0,4.5,0.4,6.4,1.1c0.2,0.1,0.4,0.2,0.6,0.2
	c1,0,1.6-0.9,1.6-1.7c0-0.9-0.6-1.4-1.1-1.6c-2.1-0.8-4.8-1.3-7.9-1.3c-6.7,0-10.2,3.7-10.2,8.1c0,9.7,16.8,6.5,16.8,12.3
	c0,3.4-3,4.5-6.9,4.5c-3.4,0-6-0.8-7.8-1.6c-0.3-0.1-0.5-0.2-0.7-0.2c-1,0-1.6,0.8-1.6,1.7c0,0.7,0.5,1.4,1.1,1.6
	c2.3,1,5.4,1.9,9.4,1.9c6.1,0,10.1-3.2,10.1-7.7c0-10.4-16.7-6-16.7-12.8C325.6,137.3,328.7,135.7,332.6,135.7z M373.6,146.6
	c-0.2,8.2-5.4,14.2-13.8,14.2s-13.7-5.9-13.8-14.2c0.2-8.2,5.4-14.2,13.8-14.2S373.5,138.3,373.6,146.6z M370.1,146.6
	c0-6.1-3.7-10.8-10.3-10.8c-6.5,0-10.3,4.7-10.3,10.8c0,6.1,3.7,10.8,10.3,10.8C366.3,157.4,370.1,152.7,370.1,146.6z M401.8,134.4
	c0-1-0.8-1.8-1.8-1.8s-1.8,0.8-1.8,1.8v15.7c0,4.9-3.9,7.3-7.7,7.3c-3.9,0-7.7-2.4-7.7-7.3v-15.7c0-1-0.8-1.8-1.8-1.8
	s-1.8,0.8-1.8,1.8V150c0,7.4,6,10.7,11.3,10.7s11.3-3.3,11.3-10.7V134.4z M425.7,148c4.4,1.1,4.9,6.8,4.9,9v1.8c0,1-0.8,1.8-1.8,1.8
	c-1.1,0-1.8-0.7-1.8-1.8v-1.2c0-2.6-0.2-8-6.1-8h-8.2v9.2c0,1-0.8,1.8-1.8,1.8s-1.8-0.8-1.8-1.8v-24.1c0-1,0.8-1.8,1.8-1.8h9.2
	c7.5,0,10.7,3.5,10.7,8C430.8,143.9,429.2,146.8,425.7,148z M427.3,141.1c0-2.9-1.7-4.9-7.6-4.9h-6.9v10h7.1
	C424.3,146.2,427.3,144.5,427.3,141.1z M449.3,160.7c3.9,0,6.5-1.1,9-2.4c0.5-0.3,0.8-0.7,0.9-1.4c0-0.8-0.6-1.6-1.6-1.6
	c-0.2,0-0.5,0-0.7,0.2c-2.1,1.1-4.1,1.9-7.2,1.9c-7,0-10.6-4.7-10.6-10.7c0-6,3.6-10.7,10.6-10.7c3.1,0,5.1,0.8,7.2,1.9
	c0.2,0.1,0.5,0.2,0.7,0.2c1,0,1.6-0.8,1.6-1.6s-0.4-1.1-0.9-1.4c-2.4-1.4-5.1-2.4-9-2.4c-7.8,0-13.8,5.4-13.8,14.2
	C435.5,155.4,441.4,160.7,449.3,160.7z M482,160.3c1,0,1.7-0.7,1.7-1.7s-0.8-1.7-1.7-1.7h-14v-8.8h12.6c0.9,0,1.7-0.7,1.7-1.7
	s-0.8-1.7-1.7-1.7H468V136h14c1,0,1.7-0.7,1.7-1.7c0-0.9-0.8-1.7-1.7-1.7h-15.8c-1,0-1.8,0.8-1.8,1.8v23.9c0,1,0.8,1.8,1.8,1.8H482
	V160.3z M497.8,157.3c-3.4,0-6-0.8-7.8-1.6c-0.3-0.1-0.5-0.2-0.7-0.2c-1,0-1.6,0.8-1.6,1.7c0,0.7,0.5,1.4,1.1,1.6
	c2.3,1,5.4,1.9,9.4,1.9c6.1,0,10.1-3.2,10.1-7.7c0-10.4-16.7-6-16.7-12.8c0-3,3-4.5,7-4.5c2.4,0,4.5,0.4,6.4,1.1
	c0.2,0.1,0.4,0.2,0.6,0.2c1,0,1.6-0.9,1.6-1.7c0-0.9-0.6-1.4-1.1-1.6c-2.1-0.8-4.8-1.3-7.9-1.3c-6.7,0-10.2,3.7-10.2,8.1
	c0,9.7,16.8,6.5,16.8,12.3C504.7,156.2,501.7,157.3,497.8,157.3z M287.9,167.7c0.9,0,1.7-0.7,1.7-1.7c0-0.9-0.8-1.7-1.7-1.7h-15.8
	c-1,0-1.8,0.8-1.8,1.8V190c0,1,0.8,1.8,1.8,1.8h15.8c0.9,0,1.7-0.7,1.7-1.7c0-0.9-0.8-1.7-1.7-1.7h-14v-8.8h12.6
	c0.9,0,1.7-0.7,1.7-1.7c0-0.9-0.8-1.7-1.7-1.7h-12.6v-8.7h14V167.7z M307,178.1l9.1-11.2c0.2-0.3,0.3-0.6,0.3-1
	c0-0.9-0.8-1.7-1.7-1.7c-0.6,0-1,0.2-1.3,0.6l-8.3,10.6l-8.3-10.6c-0.3-0.4-0.9-0.7-1.5-0.7c-1,0-1.7,0.8-1.7,1.7
	c0,0.4,0.1,0.8,0.4,1.1l9,11.1l-9.1,11.2c-0.2,0.3-0.4,0.7-0.4,1.1c0,0.9,0.8,1.7,1.7,1.7c0.6,0,1-0.3,1.4-0.7l8.3-10.6l8.4,10.6
	c0.3,0.4,0.8,0.8,1.4,0.8c1.1,0,1.8-0.8,1.8-1.8c0-0.4-0.1-0.8-0.4-1L307,178.1z M342.7,173.1c0,4.2-2.6,8.8-10.5,8.8H325v8.4
	c0,1-0.8,1.8-1.8,1.8s-1.8-0.8-1.8-1.8v-24.1c0-1,0.8-1.8,1.8-1.8h9C340.1,164.4,342.7,168.9,342.7,173.1z M339.1,173.1
	c0-2.6-1.4-5.4-7.3-5.4H325v10.7h6.8C337.7,178.5,339.1,175.7,339.1,173.1z M365,167.7c0.9,0,1.7-0.7,1.7-1.7c0-0.9-0.8-1.7-1.7-1.7
	h-15.8c-1,0-1.8,0.8-1.8,1.8V190c0,1,0.8,1.8,1.8,1.8H365c0.9,0,1.7-0.7,1.7-1.7c0-0.9-0.8-1.7-1.7-1.7h-14v-8.8h12.6
	c0.9,0,1.7-0.7,1.7-1.7c0-0.9-0.7-1.7-1.7-1.7H351v-8.7h14V167.7z M388.5,179.5c4.4,1.1,4.9,6.8,4.9,9v1.8c0,1-0.8,1.8-1.8,1.8
	c-1.1,0-1.8-0.7-1.8-1.8v-1.2c0-2.6-0.2-8-6.1-8h-8.2v9.2c0,1-0.8,1.8-1.8,1.8s-1.8-0.8-1.8-1.8v-24.1c0-1,0.8-1.8,1.8-1.8h9.2
	c7.5,0,10.7,3.5,10.7,8C393.7,175.4,392,178.3,388.5,179.5z M390.1,172.7c0-2.9-1.7-4.9-7.6-4.9h-6.9v10h7.1
	C387.1,177.8,390.1,176,390.1,172.7z M401.9,164.2c-1,0-1.8,0.8-1.8,1.8v24.3c0,1,0.8,1.8,1.8,1.8s1.8-0.8,1.8-1.8V166
	C403.7,165,402.9,164.2,401.9,164.2z M428.7,167.7c0.9,0,1.7-0.7,1.7-1.7c0-0.9-0.8-1.7-1.7-1.7h-15.8c-1,0-1.8,0.8-1.8,1.8V190
	c0,1,0.8,1.8,1.8,1.8h15.8c0.9,0,1.7-0.7,1.7-1.7c0-0.9-0.8-1.7-1.7-1.7h-14v-8.8h12.6c0.9,0,1.7-0.7,1.7-1.7c0-0.9-0.8-1.7-1.7-1.7
	h-12.6v-8.7h14V167.7z M457.8,164.2c-1,0-1.8,0.8-1.8,1.8v21.3l-15.2-21.9c-0.6-0.7-1.3-1.2-2.2-1.2h-0.5c-1.4,0-2.6,1.2-2.6,2.6
	v23.5c0,1,0.8,1.8,1.8,1.8s1.8-0.8,1.8-1.8V169l15.3,22c0.5,0.6,1.2,1.1,2.1,1.1h0.5c1.4,0,2.6-1.1,2.6-2.6V166
	C459.6,165,458.8,164.2,457.8,164.2z M479.7,167.4c3.1,0,5.1,0.8,7.2,1.9c0.2,0.1,0.5,0.2,0.7,0.2c1,0,1.6-0.7,1.6-1.6
	c0-0.8-0.4-1.1-0.9-1.4c-2.4-1.4-5.1-2.4-9-2.4c-7.9,0-13.8,5.4-13.8,14.2c0,8.8,6,14.2,13.8,14.2c3.9,0,6.5-1.1,9-2.4
	c0.5-0.3,0.8-0.7,0.9-1.4c0-0.8-0.6-1.6-1.6-1.6c-0.2,0-0.5,0-0.7,0.2c-2.1,1.1-4.1,1.9-7.2,1.9c-7,0-10.6-4.7-10.6-10.7
	C469.1,172.1,472.7,167.4,479.7,167.4z M512,188.6h-14v-8.8h12.6c0.9,0,1.7-0.7,1.7-1.7c0-0.9-0.8-1.7-1.7-1.7H498v-8.7h14
	c0.9,0,1.7-0.7,1.7-1.7c0-0.9-0.8-1.7-1.7-1.7h-15.8c-1,0-1.8,0.8-1.8,1.8V190c0,1,0.8,1.8,1.8,1.8H512c0.9,0,1.7-0.7,1.7-1.7
	C513.7,189.3,513,188.6,512,188.6z"/>
</svg>
