<?xml version="1.0" encoding="utf-8"?>
<!-- Generator: Adobe Illustrator 26.0.2, SVG Export Plug-In . SVG Version: 6.00 Build 0)  -->
<svg version="1.1" id="Warstwa_1" xmlns="http://www.w3.org/2000/svg" xmlns:xlink="http://www.w3.org/1999/xlink" x="0px" y="0px"
	 viewBox="0 0 2993.4 326.4" style="enable-background:new 0 0 2993.4 326.4;" xml:space="preserve">
<style type="text/css">
	.st0{fill:#020203;}
</style>
<g>
	<path class="st0" d="M91.6,262.7c-10.2,0-19.3-0.9-27.3-2.8c-8-1.9-15.1-4.3-21.3-7.3c-6.2-3-11.6-6.5-16.1-10.4
		c-4.5-3.9-8.4-8-11.5-12.1C7.9,220.5,2.8,209.6,0,197.4h56.1c1.2,4.2,3.3,7.8,6.5,10.9c2.6,2.9,6.2,5.4,10.8,7.6
		c4.6,2.2,10.7,3.3,18.2,3.3c10.4,0,17.7-1.6,21.9-4.8c4.1-3.2,6.2-6.8,6.2-10.7c0-5.2-2.8-9.2-8.3-12c-5.5-2.8-12.5-5.2-20.8-7.3
		c-8.4-2.1-17.4-4.3-27-6.7c-9.6-2.4-18.7-5.8-27-10.1c-8.4-4.4-15.3-10.2-20.8-17.4c-5.5-7.3-8.3-16.9-8.3-28.9
		c0-7,1.7-14,5.2-20.8c3.4-6.8,8.6-13,15.5-18.4c6.9-5.4,15.4-9.8,25.4-13.2c10-3.4,21.8-5.1,35.1-5.1c9.1,0,17.2,0.8,24.4,2.5
		c7.2,1.7,13.6,3.9,19.2,6.7c5.6,2.8,10.5,6,14.8,9.5c4.2,3.5,7.8,7.2,10.8,10.9c7.1,8.7,12.1,18.6,15.1,29.6h-56.1
		c-1.2-2.9-3-5.5-5.3-7.8c-2.2-1.9-5-3.6-8.6-5.3c-3.5-1.7-8.3-2.5-14.2-2.5c-8.9,0-15,1.4-18.5,4c-3.4,2.7-5.2,6-5.2,10
		c0,4.6,2.8,8.1,8.3,10.6c5.5,2.5,12.5,4.7,20.8,6.5c8.4,1.9,17.4,3.9,27,6.2c9.6,2.3,18.7,5.6,27,9.8c8.4,4.3,15.3,10.1,20.8,17.4
		c5.5,7.4,8.3,17,8.3,28.8c0,7.9-1.8,15.5-5.5,22.9c-3.6,7.4-9.1,14-16.2,19.9c-7.2,5.9-16.1,10.6-26.9,14.2
		C117.9,260.9,105.5,262.7,91.6,262.7z"/>
	<path class="st0" d="M223.1,69.8h54.6v65.3h22.1l38.4-65.3h62l-56.1,88.7l60.5,98h-62L301.4,188h-23.6v68.4h-54.6V69.8z"/>
	<path class="st0" d="M441.7,69.8h54.6v133.8h87.1v52.9H441.7V69.8z"/>
	<path class="st0" d="M621.8,69.8h54.6v186.7h-54.6V69.8z"/>
	<path class="st0" d="M732.1,69.8H834c10.2,0,19.2,1.3,27,3.9c7.8,2.6,14.3,6.1,19.5,10.4c5.2,4.4,9.1,9.4,11.7,15.2
		c2.6,5.8,3.8,12,3.8,18.7c0,7.5-1.5,13.6-4.6,18.4c-3.1,4.8-6.5,8.6-10.2,11.5c-4.3,3.3-9.3,5.8-14.8,7.5v3.1
		c6.9,1.5,13,3.9,18.3,7.5c4.5,2.9,8.8,7.2,12.7,12.8c3.9,5.6,5.9,12.9,5.9,21.8c0,7.9-1.5,15.2-4.4,21.9c-3,6.7-7.4,12.7-13.3,17.7
		c-5.9,5.1-13.3,9.1-22.2,12c-8.9,2.9-19.2,4.4-31,4.4H732.1V69.8z M822.2,141.4c5.9,0,10.1-1.3,12.6-4c2.5-2.7,3.7-6,3.7-10
		c0-3.9-1.2-7.3-3.7-10c-2.5-2.7-6.6-4-12.6-4h-35.4v28H822.2z M828.1,212.9c6.9,0,11.8-1.4,14.8-4.2c3-2.8,4.4-6.6,4.4-11.4
		c0-4.8-1.5-8.6-4.6-11.4c-3.1-2.8-7.9-4.2-14.6-4.2h-41.3v31.1H828.1z"/>
	<path class="st0" d="M950.1,69.8h144.7v46.7h-90.1v23.3h72.4v45.1h-72.4v24.9h90.1v46.7H950.1V69.8z"/>
	<path class="st0" d="M1222.6,262.7c-10.2,0-19.3-0.9-27.3-2.8c-8-1.9-15.1-4.3-21.3-7.3c-6.2-3-11.6-6.5-16.1-10.4
		c-4.5-3.9-8.4-8-11.5-12.1c-7.5-9.5-12.6-20.4-15.4-32.7h56.1c1.2,4.2,3.3,7.8,6.5,10.9c2.6,2.9,6.2,5.4,10.8,7.6
		c4.6,2.2,10.7,3.3,18.2,3.3c10.4,0,17.7-1.6,21.9-4.8c4.1-3.2,6.2-6.8,6.2-10.7c0-5.2-2.8-9.2-8.3-12c-5.5-2.8-12.5-5.2-20.8-7.3
		c-8.4-2.1-17.4-4.3-27-6.7c-9.6-2.4-18.7-5.8-27-10.1c-8.4-4.4-15.3-10.2-20.8-17.4c-5.5-7.3-8.3-16.9-8.3-28.9
		c0-7,1.7-14,5.2-20.8c3.4-6.8,8.6-13,15.5-18.4c6.9-5.4,15.4-9.8,25.4-13.2c10-3.4,21.8-5.1,35.1-5.1c9.1,0,17.2,0.8,24.4,2.5
		c7.2,1.7,13.6,3.9,19.2,6.7c5.6,2.8,10.5,6,14.8,9.5c4.2,3.5,7.8,7.2,10.8,10.9c7.1,8.7,12.1,18.6,15.1,29.6h-56.1
		c-1.2-2.9-3-5.5-5.3-7.8c-2.2-1.9-5-3.6-8.6-5.3c-3.5-1.7-8.3-2.5-14.2-2.5c-8.9,0-15,1.4-18.5,4c-3.4,2.7-5.2,6-5.2,10
		c0,4.6,2.8,8.1,8.3,10.6c5.5,2.5,12.5,4.7,20.8,6.5c8.4,1.9,17.4,3.9,27,6.2c9.6,2.3,18.7,5.6,27,9.8c8.4,4.3,15.3,10.1,20.8,17.4
		c5.5,7.4,8.3,17,8.3,28.8c0,7.9-1.8,15.5-5.5,22.9c-3.6,7.4-9.1,14-16.2,19.9c-7.2,5.9-16.1,10.6-26.9,14.2
		C1248.9,260.9,1236.6,262.7,1222.6,262.7z"/>
	<path class="st0" d="M1345.3,125.3l38.6-38.6l46.2,46.2l15.7-15.7l-19-73.3L1470.6,0l23,102.4l112.1,26.5l-43.9,43.9l-77.6-19.2
		l-16.7,16.7l48.4,48.4l-38.6,38.6L1345.3,125.3z"/>
	<path class="st0" d="M1689.2,188l-69.4-118.2h57.6l36.9,65.3h4.4l36.9-65.3h57.6L1743.8,188v68.4h-54.6V188z"/>
	<path class="st0" d="M1900.8,122.7h-59.1V69.8h172.8v52.9h-59.1v133.8h-54.6V122.7z"/>
	<path class="st0" d="M2104.6,122.7h-59.1V69.8h172.8v52.9h-59.1v133.8h-54.6V122.7z"/>
	<path class="st0" d="M2256.6,69.8h144.7v46.7h-90.1v23.3h72.4v45.1h-72.4v24.9h90.1v46.7h-144.7V69.8z"/>
	<path class="st0" d="M2451.8,69.8h54.6v133.8h87.1v52.9h-141.8V69.8z"/>
	<path class="st0" d="M2717.2,262.7c-10.2,0-19.3-0.9-27.3-2.8c-8-1.9-15.1-4.3-21.3-7.3c-6.2-3-11.6-6.5-16.1-10.4
		c-4.5-3.9-8.4-8-11.5-12.1c-7.5-9.5-12.6-20.4-15.4-32.7h56.1c1.2,4.2,3.3,7.8,6.5,10.9c2.6,2.9,6.2,5.4,10.8,7.6
		c4.6,2.2,10.7,3.3,18.2,3.3c10.4,0,17.7-1.6,21.9-4.8c4.1-3.2,6.2-6.8,6.2-10.7c0-5.2-2.8-9.2-8.3-12c-5.5-2.8-12.5-5.2-20.8-7.3
		c-8.4-2.1-17.4-4.3-27-6.7c-9.6-2.4-18.7-5.8-27-10.1c-8.4-4.4-15.3-10.2-20.8-17.4c-5.5-7.3-8.3-16.9-8.3-28.9
		c0-7,1.7-14,5.2-20.8c3.4-6.8,8.6-13,15.5-18.4c6.9-5.4,15.4-9.8,25.4-13.2c10-3.4,21.8-5.1,35.1-5.1c9.1,0,17.2,0.8,24.4,2.5
		c7.2,1.7,13.6,3.9,19.2,6.7c5.6,2.8,10.5,6,14.8,9.5c4.2,3.5,7.8,7.2,10.8,10.9c7.1,8.7,12.1,18.6,15.1,29.6h-56.1
		c-1.2-2.9-3-5.5-5.3-7.8c-2.2-1.9-5-3.6-8.6-5.3c-3.5-1.7-8.3-2.5-14.2-2.5c-8.9,0-15,1.4-18.5,4c-3.4,2.7-5.2,6-5.2,10
		c0,4.6,2.8,8.1,8.3,10.6c5.5,2.5,12.5,4.7,20.8,6.5c8.4,1.9,17.4,3.9,27,6.2c9.6,2.3,18.7,5.6,27,9.8c8.4,4.3,15.3,10.1,20.8,17.4
		c5.5,7.4,8.3,17,8.3,28.8c0,7.9-1.8,15.5-5.5,22.9c-3.6,7.4-9.1,14-16.2,19.9c-7.2,5.9-16.1,10.6-26.9,14.2
		C2743.5,260.9,2731.1,262.7,2717.2,262.7z"/>
	<path class="st0" d="M2848.7,69.8h144.7v46.7h-90.1v23.3h72.4v45.1h-72.4v24.9h90.1v46.7h-144.7V69.8z"/>
	<rect x="7.7" y="308.6" class="st0" width="2985.7" height="17.7"/>
	<path class="st0" d="M1512.9,248.2l14.3-16.5c5.7-6.6,14.1-10.4,22.8-10.4l0,0c4.3,0,7.7,3.4,7.7,7.7v0c0,3.4-2.2,6.4-5.5,7.4
		L1512.9,248.2z"/>
	<path class="st0" d="M1439,254.6l-21.8,1.5c-8.7,0.6-17.3-2.6-23.5-8.8v0c-3-3-3-7.9,0-10.9v0c2.4-2.4,6.1-2.9,9.1-1.3L1439,254.6z
		"/>
	<path class="st0" d="M1527.2,258.9l26.9-10.3c10.8-4.1,25-4.5,39-1v0c6.8,1.7,11.5,6.4,10.5,10.5l0,0c-0.8,3.3-5.1,5.3-10.6,5
		L1527.2,258.9z"/>
</g>
</svg>
