<?xml version="1.0" encoding="utf-8"?>
<!-- Generator: Adobe Illustrator 16.0.0, SVG Export Plug-In . SVG Version: 6.00 Build 0)  -->
<!DOCTYPE svg PUBLIC "-//W3C//DTD SVG 1.1//EN" "http://www.w3.org/Graphics/SVG/1.1/DTD/svg11.dtd">
<svg version="1.1" id="Layer_1" xmlns="http://www.w3.org/2000/svg" xmlns:xlink="http://www.w3.org/1999/xlink" x="0px" y="0px"
	 width="488.533px" height="435.588px" viewBox="33.861 0 488.533 435.588" enable-background="new 33.861 0 488.533 435.588"
	 xml:space="preserve">
<polygon fill="#FFFFFF" points="33.861,0 33.861,124.625 33.861,191.35 278.1,435.588 522.395,191.294 522.395,130.136 522.395,0 
	"/>
<g>
	<g>
		<path fill="#E63512" d="M258.723,53.847L111.428,201.141c-0.391,0.391-0.391,1.023,0,1.414c0.195,0.195,0.451,0.293,0.707,0.293
			s0.512-0.098,0.707-0.293L260.137,55.261c0.391-0.391,0.391-1.023,0-1.414C259.746,53.456,259.114,53.457,258.723,53.847z"/>
		<path fill="#12100B" d="M439.32,233.031c-0.391-0.392-1.021-0.392-1.414,0L290.611,380.326c-0.391,0.391-0.391,1.022,0,1.414
			c0.195,0.194,0.451,0.293,0.707,0.293s0.512-0.099,0.707-0.293L439.32,234.444C439.711,234.056,439.711,233.422,439.32,233.031z"
			/>
	</g>
	<g>
		<path fill="#12100B" d="M250.659,324.629c-0.445-0.403-0.994-0.722-1.65-0.951c-0.654-0.229-1.4-0.345-2.236-0.345h-3.646v0.202
			l1.215,0.305v13.162l-1.215,0.306v0.201h4.152v-0.201l-1.215-0.306v-4.556h0.709c0.836,0,1.582-0.114,2.236-0.346
			c0.656-0.229,1.205-0.547,1.65-0.951c0.447-0.404,0.787-0.885,1.023-1.438c0.236-0.555,0.354-1.162,0.354-1.822
			c0-0.662-0.117-1.27-0.354-1.824C251.446,325.515,251.106,325.034,250.659,324.629z M249.243,331.067
			c-0.582,0.648-1.404,0.974-2.471,0.974h-0.709v-8.304h0.709c1.066,0,1.889,0.324,2.471,0.974c0.58,0.647,0.869,1.707,0.869,3.179
			C250.112,329.362,249.823,330.421,249.243,331.067z"/>
		<polygon fill="#12100B" points="268.541,323.535 269.858,324.042 269.858,333.965 264.086,323.333 261.352,323.333 
			261.352,323.535 262.668,323.94 262.668,336.8 261.352,337.308 261.352,337.509 264.389,337.509 264.389,337.308 263.073,336.8 
			263.073,325.056 269.959,337.711 270.262,337.711 270.262,324.042 271.578,323.535 271.578,323.333 268.541,323.333 		"/>
		<path fill="#12100B" d="M289.307,335.14c-0.209,0.459-0.465,0.857-0.77,1.194c-0.303,0.338-0.637,0.603-1.002,0.79
			c-0.365,0.189-0.723,0.284-1.074,0.284c-0.432,0-0.844-0.108-1.234-0.324c-0.393-0.217-0.736-0.591-1.033-1.125
			c-0.297-0.533-0.533-1.248-0.709-2.146c-0.176-0.896-0.264-2.027-0.264-3.393c0-1.363,0.088-2.494,0.264-3.392
			c0.176-0.898,0.406-1.613,0.689-2.146c0.283-0.532,0.607-0.907,0.971-1.125c0.365-0.215,0.736-0.323,1.115-0.323
			c0.607,0,1.17,0.295,1.691,0.881c0.52,0.588,0.934,1.441,1.244,2.563h0.305c-0.027-0.203-0.049-0.412-0.061-0.627
			c-0.014-0.189-0.025-0.396-0.031-0.618c-0.008-0.224-0.01-0.448-0.01-0.679c0-0.203,0.002-0.408,0.01-0.617
			c0.006-0.209,0.018-0.408,0.031-0.598c0.012-0.203,0.033-0.405,0.061-0.607h-0.305c-0.201,0.055-0.395,0.172-0.576,0.354
			c-0.184,0.184-0.328,0.375-0.436,0.577c-0.162-0.188-0.354-0.356-0.568-0.506c-0.188-0.136-0.414-0.257-0.678-0.365
			c-0.264-0.106-0.557-0.161-0.881-0.161c-0.58,0-1.154,0.151-1.723,0.455c-0.566,0.305-1.076,0.764-1.527,1.378
			c-0.453,0.613-0.816,1.384-1.096,2.309c-0.277,0.926-0.414,2.01-0.414,3.25c0,1.242,0.139,2.325,0.414,3.251
			c0.277,0.925,0.648,1.693,1.113,2.31c0.467,0.613,0.996,1.072,1.59,1.377c0.596,0.303,1.209,0.455,1.846,0.455
			c0.484,0,0.943-0.103,1.377-0.305c0.432-0.201,0.813-0.488,1.145-0.859c0.33-0.371,0.604-0.812,0.82-1.316
			c0.215-0.506,0.35-1.063,0.404-1.671h-0.307C289.648,334.188,289.516,334.681,289.307,335.14z"/>
		<path fill="#12100B" d="M307.32,333.661c-0.053,0.525-0.186,1.02-0.395,1.479s-0.465,0.857-0.77,1.194
			c-0.303,0.338-0.637,0.603-1.002,0.79c-0.365,0.189-0.723,0.284-1.074,0.284c-0.432,0-0.844-0.108-1.234-0.324
			c-0.393-0.217-0.736-0.591-1.033-1.125c-0.297-0.533-0.533-1.248-0.709-2.146c-0.176-0.896-0.264-2.027-0.264-3.393
			c0-1.363,0.088-2.494,0.264-3.392c0.176-0.898,0.406-1.613,0.689-2.146c0.283-0.532,0.607-0.907,0.971-1.125
			c0.365-0.215,0.736-0.323,1.115-0.323c0.607,0,1.17,0.295,1.691,0.881c0.52,0.588,0.934,1.441,1.244,2.563h0.305
			c-0.027-0.203-0.049-0.412-0.061-0.627c-0.014-0.189-0.025-0.396-0.031-0.618c-0.008-0.224-0.01-0.448-0.01-0.679
			c0-0.203,0.002-0.408,0.01-0.617c0.006-0.209,0.018-0.408,0.031-0.598c0.012-0.203,0.033-0.405,0.061-0.607h-0.305
			c-0.201,0.055-0.395,0.172-0.576,0.354c-0.184,0.184-0.328,0.375-0.436,0.577c-0.162-0.188-0.354-0.356-0.568-0.506
			c-0.188-0.136-0.414-0.257-0.678-0.365c-0.264-0.106-0.557-0.161-0.881-0.161c-0.58,0-1.154,0.151-1.721,0.455
			c-0.568,0.305-1.078,0.764-1.529,1.378c-0.453,0.613-0.816,1.384-1.094,2.309c-0.279,0.926-0.416,2.01-0.416,3.25
			c0,1.242,0.139,2.325,0.416,3.251c0.275,0.925,0.646,1.693,1.111,2.31c0.469,0.613,0.996,1.072,1.59,1.377
			c0.596,0.303,1.211,0.455,1.846,0.455c0.484,0,0.943-0.103,1.377-0.305c0.432-0.201,0.813-0.488,1.145-0.859
			c0.33-0.371,0.604-0.812,0.82-1.316c0.215-0.506,0.35-1.063,0.404-1.671h-0.305V333.661z"/>
	</g>
	<g>
		<path fill="#12100B" d="M235.364,120.194c-0.832-0.757-1.859-1.349-3.082-1.777s-2.615-0.644-4.18-0.644h-6.807v0.379l2.27,0.566
			v24.583l-2.27,0.567v0.378h7.754v-0.378l-2.27-0.567v-8.509h1.322c1.564,0,2.957-0.215,4.18-0.644s2.25-1.021,3.082-1.777
			s1.469-1.651,1.91-2.685c0.441-1.034,0.662-2.169,0.662-3.404c0-1.234-0.221-2.369-0.662-3.404
			C236.832,121.846,236.196,120.951,235.364,120.194z M232.717,132.221c-1.084,1.21-2.623,1.815-4.615,1.815h-1.322V118.53h1.322
			c1.992,0,3.531,0.604,4.615,1.814c1.084,1.21,1.625,3.189,1.625,5.938S233.801,131.01,232.717,132.221z"/>
		<path fill="#12100B" d="M253.535,128.723c-0.668-0.795-1.438-1.399-2.307-1.815c-0.869-0.416-1.771-0.624-2.703-0.624
			c-0.959,0-1.867,0.208-2.725,0.624c-0.858,0.416-1.619,1.021-2.287,1.815s-1.197,1.765-1.588,2.912
			c-0.393,1.147-0.586,2.452-0.586,3.914c0,1.463,0.193,2.768,0.586,3.914c0.391,1.147,0.92,2.118,1.588,2.912
			c0.668,0.795,1.43,1.399,2.287,1.815s1.766,0.624,2.725,0.624c0.932,0,1.834-0.208,2.703-0.624
			c0.869-0.416,1.639-1.021,2.307-1.815s1.197-1.765,1.588-2.912c0.391-1.146,0.588-2.451,0.588-3.914
			c0-1.462-0.197-2.767-0.588-3.914C254.732,130.488,254.203,129.517,253.535,128.723z M251.948,139.709
			c-0.24,1.109-0.543,1.998-0.908,2.666c-0.365,0.668-0.77,1.147-1.209,1.438c-0.441,0.29-0.877,0.435-1.305,0.435
			c-0.43,0-0.865-0.145-1.305-0.435c-0.441-0.29-0.846-0.77-1.211-1.438c-0.365-0.668-0.668-1.557-0.908-2.666
			c-0.24-1.109-0.359-2.496-0.359-4.16s0.119-3.051,0.359-4.16c0.24-1.109,0.543-1.998,0.908-2.666
			c0.365-0.668,0.77-1.146,1.211-1.438c0.439-0.289,0.875-0.435,1.305-0.435c0.428,0,0.863,0.146,1.305,0.435
			c0.439,0.291,0.844,0.77,1.209,1.438c0.365,0.668,0.668,1.557,0.908,2.666c0.24,1.109,0.359,2.496,0.359,4.16
			S252.188,138.6,251.948,139.709z"/>
		<polygon fill="#12100B" points="264.785,117.773 259.493,117.773 259.493,118.152 261.76,118.719 261.76,143.302 259.493,143.869 
			259.493,144.247 267.055,144.247 267.055,143.869 264.785,143.302 		"/>
		<path fill="#12100B" d="M273.862,124.393c0.48,0,0.914-0.195,1.305-0.586c0.391-0.391,0.588-0.826,0.588-1.305
			s-0.197-0.914-0.588-1.306c-0.391-0.39-0.824-0.586-1.305-0.586c-0.479,0-0.914,0.196-1.305,0.586
			c-0.391,0.392-0.586,0.826-0.586,1.306c0,0.479,0.195,0.914,0.586,1.305S273.383,124.393,273.862,124.393z"/>
		<polygon fill="#12100B" points="275.565,126.851 270.27,126.851 270.27,127.229 272.539,127.796 272.539,143.302 270.27,143.869 
			270.27,144.247 277.834,144.247 277.834,143.869 275.565,143.302 		"/>
		<path fill="#12100B" d="M291.221,135.359c-0.707-0.529-1.482-0.996-2.326-1.398c-0.846-0.404-1.621-0.801-2.326-1.191
			c-0.707-0.391-1.299-0.813-1.777-1.268c-0.479-0.453-0.719-0.996-0.719-1.626c0-0.757,0.289-1.419,0.869-1.985
			c0.58-0.567,1.299-0.852,2.156-0.852c1.059,0,2.055,0.492,2.988,1.476c0.932,0.983,1.639,2.382,2.117,4.198h0.568
			c-0.051-0.328-0.09-0.668-0.115-1.021c-0.025-0.303-0.043-0.648-0.057-1.04c-0.012-0.391-0.02-0.775-0.02-1.153
			c0-0.328,0.008-0.668,0.02-1.021c0.014-0.353,0.031-0.681,0.057-0.983c0.025-0.353,0.064-0.692,0.115-1.021h-0.568
			c-0.277,0.101-0.574,0.314-0.889,0.643c-0.316,0.329-0.523,0.681-0.623,1.059c-0.279-0.353-0.605-0.668-0.984-0.945
			c-0.354-0.227-0.775-0.441-1.268-0.643c-0.49-0.201-1.064-0.303-1.721-0.303c-0.756,0-1.449,0.12-2.08,0.359
			c-0.629,0.24-1.166,0.561-1.605,0.965c-0.441,0.402-0.789,0.869-1.041,1.398c-0.252,0.529-0.379,1.072-0.379,1.627
			c0,0.982,0.234,1.814,0.701,2.496c0.465,0.68,1.051,1.273,1.758,1.777c0.705,0.504,1.463,0.958,2.27,1.361s1.563,0.813,2.27,1.229
			c0.705,0.416,1.291,0.877,1.758,1.381c0.469,0.504,0.699,1.097,0.699,1.777c0,0.959-0.334,1.766-1.002,2.42
			c-0.668,0.656-1.531,0.984-2.59,0.984c-1.338,0-2.496-0.492-3.48-1.476c-0.98-0.983-1.715-2.382-2.191-4.198h-0.566
			c0.023,0.354,0.049,0.707,0.076,1.059c0.021,0.303,0.049,0.644,0.074,1.021c0.023,0.379,0.039,0.757,0.039,1.135
			c0,0.354-0.016,0.699-0.039,1.04c-0.025,0.341-0.053,0.662-0.074,0.964c-0.027,0.354-0.053,0.693-0.076,1.021h0.566
			c0.275-0.101,0.572-0.315,0.889-0.643s0.523-0.681,0.625-1.059c0.277,0.354,0.629,0.668,1.059,0.945
			c0.354,0.252,0.818,0.473,1.398,0.662c0.58,0.188,1.273,0.283,2.08,0.283c0.855,0,1.645-0.139,2.365-0.416
			c0.717-0.277,1.336-0.648,1.852-1.115c0.518-0.467,0.92-0.996,1.211-1.589c0.289-0.593,0.436-1.191,0.436-1.796
			c0-1.034-0.24-1.916-0.719-2.648C292.518,136.52,291.926,135.889,291.221,135.359z"/>
		<path fill="#12100B" d="M312.059,131.956c0-0.856-0.133-1.632-0.395-2.326c-0.268-0.692-0.639-1.286-1.115-1.777
			c-0.48-0.491-1.041-0.876-1.686-1.153c-0.643-0.277-1.342-0.416-2.1-0.416c-0.756,0-1.412,0.151-1.967,0.453
			c-0.555,0.303-1.008,0.631-1.361,0.984c-0.428,0.429-0.77,0.895-1.02,1.398v-11.346h-5.293v0.379l2.268,0.566v24.583l-2.268,0.567
			v0.378h7.373v-0.378l-2.08-0.567v-12.858c0.275-0.63,0.604-1.197,0.982-1.702c0.328-0.429,0.721-0.819,1.172-1.173
			c0.455-0.352,0.996-0.529,1.627-0.529c0.758,0,1.42,0.373,1.984,1.116c0.568,0.743,0.854,2.011,0.854,3.801v11.346l-2.08,0.567
			v0.378h7.375v-0.378l-2.271-0.567V131.956L312.059,131.956z"/>
		<rect x="317.354" y="132.523" fill="#12100B" width="12.104" height="1.513"/>
	</g>
	<g>
		<rect x="185.368" y="171.578" fill="#12100B" width="12.102" height="1.514"/>
		<polygon fill="#12100B" points="214.489,157.207 216.946,158.152 216.946,176.684 206.168,156.829 201.063,156.829 
			201.063,157.207 203.52,157.964 203.52,181.979 201.063,182.924 201.063,183.303 206.735,183.303 206.735,182.924 
			204.278,181.979 204.278,160.043 217.135,183.681 217.703,183.681 217.703,158.152 220.16,157.207 220.16,156.829 
			214.489,156.829 		"/>
		<path fill="#12100B" d="M235.76,167.777c-0.668-0.794-1.438-1.398-2.307-1.814s-1.771-0.625-2.703-0.625
			c-0.959,0-1.867,0.209-2.725,0.625c-0.858,0.416-1.619,1.021-2.287,1.814c-0.668,0.795-1.197,1.766-1.588,2.912
			c-0.393,1.148-0.586,2.453-0.586,3.914c0,1.463,0.193,2.768,0.586,3.914c0.391,1.148,0.92,2.119,1.588,2.912
			c0.668,0.795,1.43,1.4,2.287,1.816c0.857,0.416,1.766,0.623,2.725,0.623c0.932,0,1.834-0.207,2.703-0.623s1.639-1.021,2.307-1.816
			c0.668-0.793,1.197-1.764,1.588-2.912c0.391-1.146,0.588-2.451,0.588-3.914c0-1.461-0.197-2.766-0.588-3.914
			C236.957,169.543,236.428,168.572,235.76,167.777z M234.172,178.764c-0.24,1.109-0.543,1.999-0.908,2.666
			c-0.365,0.669-0.77,1.148-1.209,1.438c-0.441,0.291-0.877,0.436-1.305,0.436c-0.43,0-0.865-0.145-1.305-0.436
			c-0.441-0.289-0.846-0.769-1.211-1.438c-0.365-0.667-0.668-1.557-0.908-2.666s-0.359-2.496-0.359-4.16s0.119-3.05,0.359-4.16
			c0.24-1.109,0.543-1.998,0.908-2.666c0.365-0.668,0.77-1.146,1.211-1.438c0.439-0.289,0.875-0.434,1.305-0.434
			c0.428,0,0.863,0.145,1.305,0.434c0.439,0.291,0.844,0.77,1.209,1.438s0.668,1.557,0.908,2.666c0.24,1.11,0.359,2.496,0.359,4.16
			S234.412,177.654,234.172,178.764z"/>
		<path fill="#12100B" d="M252.723,165.395c-0.252-0.037-0.518-0.057-0.795-0.057c-0.807,0-1.5,0.266-2.08,0.795
			c-0.58,0.529-1.072,1.122-1.475,1.777c-0.453,0.756-0.846,1.602-1.172,2.533v-4.537h-5.295v0.377l2.27,0.568v15.506l-2.27,0.566
			v0.379h7.564v-0.379l-2.27-0.566v-10.969c0.252-0.629,0.58-1.197,0.982-1.701c0.328-0.428,0.744-0.818,1.248-1.172
			s1.084-0.529,1.74-0.529c0.227,0,0.447,0.031,0.662,0.094c0.213,0.063,0.396,0.133,0.549,0.208c0.176,0.101,0.34,0.188,0.49,0.265
			l1.135-2.836c-0.176-0.051-0.377-0.113-0.605-0.189C253.202,165.477,252.975,165.434,252.723,165.395z"/>
		<polygon fill="#12100B" points="274.809,166.283 277.266,167.229 273.787,178.688 268.946,165.338 268.379,165.338 
			264.182,178.688 260.248,166.852 262.328,166.283 262.328,165.906 254.764,165.906 254.764,166.283 257.034,166.852 
			262.705,183.869 263.274,183.869 267.471,170.481 272.35,183.869 272.916,183.869 278.021,167.229 280.48,166.283 280.48,165.906 
			274.809,165.906 		"/>
		<path fill="#12100B" d="M295.23,170.596c-0.379-1.16-0.877-2.125-1.494-2.894s-1.336-1.354-2.156-1.759
			c-0.816-0.402-1.682-0.605-2.59-0.605s-1.77,0.203-2.59,0.605c-0.82,0.404-1.539,0.99-2.156,1.759
			c-0.619,0.769-1.113,1.733-1.494,2.894c-0.379,1.159-0.564,2.496-0.564,4.008c0,1.463,0.193,2.768,0.586,3.914
			c0.391,1.148,0.92,2.119,1.588,2.912c0.668,0.795,1.43,1.4,2.287,1.816s1.766,0.623,2.725,0.623c0.807,0,1.557-0.145,2.25-0.435
			s1.305-0.687,1.834-1.191s0.965-1.103,1.305-1.796c0.34-0.693,0.561-1.443,0.662-2.25h-0.568c-0.1,0.705-0.297,1.361-0.586,1.966
			s-0.662,1.122-1.115,1.551c-0.453,0.429-0.971,0.77-1.551,1.021c-0.58,0.253-1.197,0.379-1.854,0.379
			c-0.529,0-1.039-0.139-1.531-0.416c-0.492-0.277-0.934-0.75-1.324-1.418c-0.389-0.668-0.705-1.545-0.945-2.629
			s-0.357-2.433-0.357-4.047h10.211C295.797,173.092,295.609,171.755,295.23,170.596z M285.586,173.848
			c0.051-1.563,0.184-2.855,0.398-3.877c0.213-1.021,0.484-1.834,0.813-2.439c0.328-0.604,0.68-1.026,1.059-1.267
			c0.379-0.239,0.756-0.358,1.135-0.358s0.756,0.119,1.135,0.358c0.381,0.24,0.73,0.662,1.061,1.267
			c0.328,0.605,0.6,1.419,0.813,2.439c0.215,1.021,0.348,2.314,0.398,3.877H285.586z"/>
		<path fill="#12100B" d="M311.494,165.527c0.227-0.126,0.479-0.189,0.756-0.189c0.328,0,0.604,0.152,0.832,0.454
			c0.227,0.303,0.4,0.631,0.527,0.983c0.152,0.43,0.268,0.896,0.34,1.399l2.84-0.567c-0.104-0.555-0.305-1.059-0.605-1.513
			c-0.277-0.378-0.662-0.725-1.154-1.04c-0.49-0.314-1.166-0.473-2.023-0.473c-0.529,0-0.982,0.076-1.361,0.227
			c-0.377,0.151-0.691,0.328-0.945,0.529c-0.275,0.228-0.516,0.479-0.719,0.757c-0.328-0.151-0.68-0.277-1.059-0.378
			c-0.328-0.101-0.693-0.189-1.096-0.266c-0.404-0.075-0.82-0.113-1.248-0.113c-0.984,0-1.893,0.164-2.723,0.492
			c-0.832,0.328-1.551,0.781-2.156,1.361s-1.078,1.262-1.418,2.043c-0.342,0.781-0.512,1.625-0.512,2.533
			c0,0.908,0.133,1.677,0.398,2.307c0.264,0.631,0.57,1.16,0.926,1.589c0.379,0.479,0.818,0.883,1.324,1.21
			c-0.529,0.328-1.012,0.681-1.439,1.059c-0.354,0.354-0.676,0.751-0.965,1.191c-0.289,0.441-0.436,0.952-0.436,1.531
			c0,0.857,0.334,1.576,1.004,2.156c0.666,0.58,1.721,0.87,3.156,0.87h6.053c2.395,0,3.592,1.196,3.592,3.593
			c0,0.655-0.139,1.285-0.416,1.891s-0.674,1.135-1.191,1.588c-0.518,0.455-1.15,0.813-1.908,1.078
			c-0.758,0.266-1.604,0.397-2.533,0.397c-1.613,0-2.869-0.429-3.766-1.286c-0.895-0.857-1.342-1.954-1.342-3.29
			c0-0.378,0.064-0.757,0.189-1.135c0.049-0.202,0.113-0.392,0.189-0.567l-2.838-1.135c-0.15,0.152-0.277,0.328-0.377,0.529
			c-0.102,0.177-0.189,0.398-0.266,0.662c-0.076,0.266-0.113,0.561-0.113,0.889c0,0.857,0.17,1.651,0.51,2.383
			c0.342,0.731,0.852,1.367,1.533,1.91c0.68,0.542,1.543,0.971,2.59,1.285c1.047,0.315,2.275,0.473,3.688,0.473
			c1.135,0,2.168-0.176,3.102-0.529c0.932-0.354,1.729-0.838,2.383-1.455c0.654-0.619,1.166-1.337,1.531-2.156
			c0.365-0.819,0.549-1.708,0.549-2.666c0-1.613-0.473-2.906-1.42-3.877c-0.945-0.97-2.174-1.455-3.686-1.455h-6.053
			c-1.059,0-1.764-0.119-2.115-0.359c-0.354-0.24-0.529-0.549-0.529-0.927c0-0.277,0.094-0.554,0.283-0.832
			c0.188-0.277,0.41-0.517,0.662-0.719c0.275-0.251,0.592-0.491,0.943-0.718c0.305,0.201,0.645,0.365,1.021,0.49
			c0.328,0.127,0.705,0.234,1.135,0.322c0.428,0.088,0.908,0.133,1.439,0.133c0.98,0,1.891-0.164,2.723-0.492
			c0.832-0.327,1.551-0.781,2.156-1.361c0.604-0.58,1.074-1.261,1.418-2.043c0.34-0.781,0.51-1.625,0.51-2.533
			c0-1.135-0.232-2.156-0.699-3.063s-1.18-1.651-2.137-2.231c0.1-0.201,0.238-0.391,0.416-0.566
			C311.088,165.779,311.266,165.654,311.494,165.527z M309.695,174.434c-0.188,0.744-0.445,1.355-0.773,1.834
			s-0.693,0.826-1.098,1.041c-0.402,0.214-0.818,0.32-1.246,0.32c-0.432,0-0.848-0.106-1.248-0.32
			c-0.404-0.215-0.771-0.562-1.1-1.041s-0.586-1.09-0.773-1.834c-0.189-0.743-0.283-1.632-0.283-2.666
			c0-1.033,0.094-1.922,0.283-2.666c0.188-0.744,0.445-1.349,0.773-1.815c0.328-0.466,0.693-0.813,1.1-1.04
			c0.4-0.227,0.816-0.34,1.248-0.34c0.428,0,0.844,0.113,1.246,0.34s0.77,0.574,1.098,1.04c0.328,0.467,0.586,1.071,0.773,1.815
			c0.189,0.744,0.283,1.633,0.283,2.666C309.979,172.802,309.885,173.69,309.695,174.434z"/>
		<path fill="#12100B" d="M322.459,163.447c0.479,0,0.914-0.195,1.305-0.586c0.391-0.391,0.586-0.826,0.586-1.305
			s-0.195-0.914-0.586-1.305s-0.826-0.586-1.305-0.586s-0.914,0.195-1.305,0.586s-0.586,0.826-0.586,1.305s0.195,0.914,0.586,1.305
			C321.545,163.252,321.98,163.447,322.459,163.447z"/>
		<polygon fill="#12100B" points="324.16,165.906 318.865,165.906 318.865,166.283 321.135,166.852 321.135,182.357 
			318.865,182.924 318.865,183.303 326.43,183.303 326.43,182.924 324.16,182.357 		"/>
		<path fill="#12100B" d="M342.691,171.012c0-1.715-0.521-3.089-1.568-4.123c-1.049-1.033-2.479-1.551-4.293-1.551
			c-0.906,0-1.707,0.121-2.4,0.359c-0.693,0.24-1.285,0.555-1.777,0.945c-0.492,0.392-0.863,0.832-1.115,1.324
			c-0.254,0.492-0.379,1.002-0.379,1.531c0,0.252,0.006,0.454,0.02,0.605c0.012,0.151,0.031,0.29,0.057,0.416
			c0.023,0.127,0.064,0.227,0.113,0.303l3.025-0.757c-0.051-0.126-0.09-0.251-0.113-0.378c-0.025-0.126-0.045-0.265-0.057-0.416
			c-0.014-0.151-0.02-0.327-0.02-0.529c0-0.857,0.252-1.545,0.756-2.063c0.504-0.517,1.135-0.774,1.891-0.774
			c0.758,0,1.42,0.377,1.986,1.134s0.852,2.08,0.852,3.972v2.269c-1.715,0-3.189,0.171-4.426,0.511
			c-1.234,0.34-2.25,0.788-3.045,1.342c-0.793,0.556-1.387,1.186-1.777,1.892s-0.586,1.412-0.586,2.118
			c0,1.437,0.461,2.584,1.381,3.441c0.92,0.856,2.289,1.285,4.104,1.285c0.756,0,1.404-0.145,1.947-0.435s0.99-0.61,1.344-0.964
			c0.43-0.429,0.781-0.908,1.061-1.438v2.27h5.295v-0.379l-2.271-0.566v-11.345H342.691z M339.666,179.709
			c-0.277,0.656-0.605,1.224-0.984,1.702c-0.328,0.429-0.725,0.819-1.191,1.173c-0.465,0.354-1.002,0.529-1.605,0.529
			c-0.654,0-1.26-0.314-1.814-0.945s-0.832-1.514-0.832-2.647c0-1.714,0.523-3.058,1.57-4.028c1.045-0.97,2.666-1.455,4.859-1.455
			v5.671H339.666z"/>
		<path fill="#12100B" d="M363.113,182.357v-11.346c0-0.857-0.133-1.633-0.395-2.326c-0.266-0.693-0.639-1.286-1.117-1.777
			c-0.479-0.492-1.039-0.876-1.682-1.154c-0.645-0.277-1.346-0.416-2.102-0.416s-1.412,0.152-1.967,0.454
			c-0.555,0.303-1.008,0.631-1.361,0.983c-0.43,0.43-0.77,0.896-1.02,1.399v-2.269h-5.295v0.377l2.27,0.568v15.506l-2.27,0.566
			v0.379h7.375v-0.379l-2.08-0.566v-12.859c0.277-0.629,0.604-1.197,0.984-1.701c0.324-0.429,0.719-0.819,1.172-1.173
			c0.453-0.353,0.996-0.529,1.627-0.529c0.756,0,1.418,0.372,1.982,1.116c0.568,0.743,0.854,2.01,0.854,3.801v11.346l-2.08,0.566
			v0.379h7.375v-0.379L363.113,182.357z"/>
	</g>
	<g>
		<path fill="#12100B" d="M221.315,217.934c-0.391,0.857-0.869,1.602-1.438,2.23c-0.566,0.631-1.191,1.122-1.871,1.476
			c-0.682,0.354-1.35,0.528-2.006,0.528c-0.807,0-1.576-0.201-2.307-0.604c-0.73-0.402-1.373-1.103-1.928-2.099
			s-0.996-2.332-1.324-4.009c-0.328-1.677-0.492-3.788-0.492-6.335c0-2.546,0.164-4.657,0.492-6.334
			c0.328-1.677,0.756-3.013,1.285-4.01c0.529-0.995,1.135-1.695,1.816-2.099c0.68-0.403,1.373-0.604,2.08-0.604
			c1.135,0,2.188,0.548,3.158,1.645c0.969,1.098,1.744,2.691,2.324,4.784h0.568c-0.051-0.378-0.088-0.769-0.113-1.173
			c-0.025-0.352-0.045-0.736-0.057-1.152c-0.014-0.416-0.02-0.838-0.02-1.268c0-0.378,0.006-0.762,0.02-1.153
			c0.012-0.391,0.031-0.763,0.057-1.116c0.025-0.377,0.063-0.756,0.113-1.135h-0.568c-0.377,0.102-0.736,0.322-1.076,0.662
			c-0.342,0.341-0.613,0.7-0.814,1.078c-0.303-0.353-0.656-0.668-1.059-0.945c-0.354-0.252-0.775-0.479-1.268-0.681
			c-0.49-0.202-1.039-0.303-1.645-0.303c-1.084,0-2.156,0.284-3.215,0.851c-1.059,0.568-2.01,1.426-2.855,2.572
			c-0.844,1.147-1.525,2.584-2.041,4.311c-0.518,1.729-0.775,3.751-0.775,6.07c0,2.32,0.258,4.344,0.775,6.07
			c0.516,1.727,1.209,3.164,2.08,4.311c0.869,1.147,1.859,2.004,2.969,2.572c1.109,0.565,2.256,0.851,3.441,0.851
			c0.906,0,1.764-0.188,2.57-0.566c0.806-0.379,1.52-0.914,2.137-1.607c0.619-0.693,1.129-1.512,1.533-2.457
			c0.402-0.946,0.654-1.986,0.756-3.121h-0.566C221.952,216.156,221.705,217.076,221.315,217.934z"/>
		<path fill="#12100B" d="M240.395,210.066c0-0.856-0.133-1.632-0.398-2.326c-0.264-0.692-0.637-1.285-1.115-1.777
			c-0.479-0.491-1.039-0.875-1.684-1.152c-0.643-0.277-1.342-0.416-2.098-0.416s-1.412,0.15-1.967,0.453
			c-0.555,0.303-1.01,0.631-1.361,0.983c-0.43,0.429-0.77,0.896-1.021,1.399v-11.346h-5.295v0.379l2.27,0.566v24.582l-2.27,0.566
			v0.379h7.375v-0.379l-2.08-0.566v-12.857c0.277-0.631,0.605-1.197,0.982-1.703c0.328-0.428,0.719-0.818,1.174-1.172
			c0.453-0.353,0.994-0.529,1.625-0.529c0.758,0,1.418,0.372,1.986,1.115c0.566,0.744,0.852,2.012,0.852,3.801v11.346l-2.08,0.565
			v0.379h7.373v-0.379l-2.268-0.565V210.066L240.395,210.066z"/>
		<path fill="#12100B" d="M258.924,210.066c0-1.714-0.523-3.088-1.568-4.122c-1.047-1.033-2.479-1.55-4.293-1.55
			c-0.908,0-1.709,0.119-2.402,0.359c-0.693,0.239-1.285,0.555-1.777,0.945c-0.49,0.391-0.863,0.832-1.115,1.323
			s-0.379,1.002-0.379,1.532c0,0.252,0.008,0.453,0.02,0.604c0.014,0.151,0.031,0.29,0.057,0.416s0.063,0.228,0.113,0.303
			l3.025-0.757c-0.051-0.125-0.088-0.252-0.113-0.378s-0.043-0.265-0.057-0.416c-0.012-0.151-0.018-0.327-0.018-0.529
			c0-0.856,0.25-1.544,0.756-2.062c0.504-0.516,1.135-0.775,1.891-0.775c0.756,0,1.418,0.379,1.986,1.135
			c0.566,0.756,0.85,2.08,0.85,3.971v2.27c-1.715,0-3.189,0.17-4.424,0.511c-1.236,0.341-2.25,0.788-3.045,1.343
			s-1.387,1.186-1.777,1.891c-0.391,0.706-0.586,1.412-0.586,2.117c0,1.438,0.459,2.585,1.381,3.44
			c0.92,0.857,2.287,1.286,4.102,1.286c0.758,0,1.406-0.146,1.949-0.435c0.541-0.29,0.988-0.611,1.342-0.965
			c0.428-0.428,0.781-0.908,1.059-1.438v2.271h5.295v-0.379l-2.27-0.566v-11.345H258.924z M255.899,218.767
			c-0.277,0.653-0.605,1.223-0.982,1.7c-0.328,0.429-0.725,0.819-1.191,1.173c-0.467,0.354-1.002,0.528-1.607,0.528
			c-0.656,0-1.262-0.313-1.816-0.944c-0.555-0.631-0.832-1.513-0.832-2.646c0-1.715,0.523-3.057,1.57-4.027
			c1.047-0.97,2.666-1.457,4.859-1.457v5.674H255.899z"/>
		<path fill="#12100B" d="M288.99,210.066c0-0.856-0.133-1.632-0.395-2.326c-0.268-0.692-0.639-1.285-1.115-1.777
			c-0.48-0.491-1.041-0.875-1.684-1.152c-0.645-0.277-1.346-0.416-2.102-0.416c-0.807,0-1.5,0.176-2.08,0.529
			s-1.07,0.744-1.475,1.172c-0.453,0.505-0.846,1.072-1.172,1.702c-0.252-0.63-0.605-1.197-1.059-1.702
			c-0.379-0.428-0.876-0.818-1.494-1.172c-0.619-0.354-1.406-0.529-2.363-0.529c-0.758,0-1.414,0.15-1.967,0.453
			c-0.555,0.303-1.01,0.631-1.361,0.983c-0.43,0.429-0.77,0.896-1.021,1.399v-2.27h-5.295v0.379l2.27,0.566v15.506l-2.27,0.566
			v0.379h7.375v-0.379l-2.08-0.566v-12.857c0.277-0.631,0.605-1.197,0.982-1.703c0.328-0.428,0.719-0.818,1.174-1.172
			c0.453-0.353,0.994-0.529,1.625-0.529c0.756,0,1.418,0.372,1.986,1.115c0.566,0.744,0.85,2.012,0.85,3.801v11.346l-2.08,0.565
			v0.379h7.187v-0.379l-2.08-0.565v-12.857c0.275-0.631,0.604-1.197,0.982-1.703c0.326-0.428,0.721-0.818,1.174-1.172
			c0.451-0.353,0.994-0.529,1.627-0.529c0.756,0,1.418,0.372,1.982,1.115c0.568,0.744,0.854,2.012,0.854,3.801v11.346l-2.08,0.566
			v0.379h7.375v-0.379l-2.271-0.566V210.066L288.99,210.066z"/>
		<path fill="#12100B" d="M308.391,206.834c-0.656-0.795-1.396-1.4-2.229-1.816s-1.703-0.623-2.609-0.623
			c-0.732,0-1.344,0.101-1.834,0.302c-0.492,0.202-0.902,0.416-1.23,0.644c-0.377,0.277-0.68,0.592-0.908,0.945v-10.4h-5.293v0.379
			l2.268,0.566v24.582l-2.268,0.566v0.379h5.293v-2.271c0.252,0.529,0.594,1.011,1.021,1.438c0.354,0.354,0.807,0.675,1.361,0.965
			c0.555,0.289,1.211,0.435,1.967,0.435c0.807,0,1.607-0.208,2.402-0.624c0.793-0.416,1.5-1.021,2.115-1.814
			c0.617-0.795,1.121-1.766,1.516-2.911c0.391-1.147,0.586-2.452,0.586-3.914c0-1.463-0.195-2.768-0.586-3.915
			C309.568,208.598,309.047,207.627,308.391,206.834z M306.783,217.706c-0.238,1.085-0.543,1.96-0.906,2.628
			c-0.365,0.668-0.77,1.142-1.209,1.418c-0.441,0.278-0.877,0.416-1.307,0.416c-0.631,0-1.172-0.176-1.627-0.528
			c-0.453-0.354-0.844-0.744-1.172-1.173c-0.379-0.479-0.707-1.047-0.982-1.7V207.42c0.229-0.429,0.506-0.807,0.832-1.135
			c0.275-0.277,0.631-0.535,1.061-0.775c0.428-0.239,0.932-0.359,1.512-0.359c0.529,0,1.041,0.146,1.531,0.436
			c0.492,0.289,0.934,0.762,1.324,1.418c0.391,0.655,0.705,1.525,0.943,2.609c0.24,1.084,0.359,2.434,0.359,4.047
			C307.143,215.274,307.023,216.623,306.783,217.706z"/>
		<path fill="#12100B" d="M327.943,209.65c-0.379-1.159-0.877-2.123-1.494-2.893c-0.615-0.77-1.336-1.355-2.154-1.759
			c-0.818-0.403-1.684-0.604-2.59-0.604c-0.908,0-1.771,0.201-2.592,0.604c-0.818,0.403-1.539,0.989-2.154,1.759
			c-0.619,0.77-1.115,1.733-1.494,2.893c-0.379,1.16-0.566,2.496-0.566,4.01c0,1.462,0.193,2.767,0.586,3.914
			c0.391,1.146,0.92,2.116,1.588,2.911c0.668,0.793,1.43,1.398,2.287,1.814s1.766,0.624,2.725,0.624c0.807,0,1.557-0.146,2.25-0.435
			c0.693-0.29,1.305-0.688,1.834-1.191s0.965-1.104,1.305-1.797s0.563-1.442,0.662-2.25h-0.568c-0.1,0.707-0.297,1.361-0.586,1.967
			c-0.289,0.606-0.662,1.122-1.115,1.551c-0.451,0.43-0.971,0.771-1.551,1.021c-0.58,0.253-1.195,0.378-1.854,0.378
			c-0.529,0-1.039-0.138-1.531-0.416c-0.492-0.276-0.934-0.75-1.324-1.418c-0.389-0.668-0.705-1.543-0.943-2.628
			c-0.24-1.083-0.359-2.433-0.359-4.046h10.211C328.51,212.146,328.322,210.811,327.943,209.65z M318.299,212.903
			c0.051-1.563,0.184-2.855,0.398-3.876c0.213-1.021,0.484-1.835,0.813-2.439c0.328-0.605,0.68-1.027,1.059-1.268
			c0.379-0.239,0.756-0.359,1.137-0.359c0.379,0,0.756,0.12,1.135,0.359c0.379,0.24,0.729,0.662,1.059,1.268
			c0.328,0.604,0.6,1.418,0.813,2.439c0.215,1.021,0.348,2.313,0.398,3.876H318.299z"/>
		<path fill="#12100B" d="M343.789,204.583c-0.203-0.05-0.43-0.095-0.682-0.132c-0.252-0.038-0.516-0.057-0.793-0.057
			c-0.809,0-1.5,0.264-2.08,0.793c-0.58,0.53-1.072,1.123-1.475,1.778c-0.455,0.757-0.846,1.601-1.174,2.534v-4.539h-5.295v0.379
			l2.27,0.566v15.506l-2.27,0.566v0.379h7.563v-0.379l-2.27-0.566v-10.967c0.252-0.631,0.58-1.197,0.984-1.702
			c0.326-0.429,0.742-0.819,1.248-1.173c0.504-0.353,1.084-0.529,1.738-0.529c0.229,0,0.447,0.032,0.662,0.095
			c0.215,0.063,0.396,0.132,0.549,0.208c0.176,0.102,0.34,0.189,0.492,0.265l1.135-2.837
			C344.217,204.723,344.016,204.658,343.789,204.583z"/>
	</g>
	<g>
		<path fill="#12100B" d="M186.315,245.89c-0.668-0.796-1.438-1.4-2.307-1.816c-0.871-0.416-1.771-0.623-2.705-0.623
			c-0.959,0-1.865,0.207-2.723,0.623s-1.621,1.021-2.289,1.816c-0.668,0.793-1.197,1.764-1.588,2.91
			c-0.391,1.147-0.586,2.452-0.586,3.915c0,1.462,0.195,2.767,0.586,3.914c0.391,1.146,0.92,2.117,1.588,2.912
			c0.668,0.794,1.432,1.397,2.289,1.813s1.764,0.625,2.723,0.625c0.934,0,1.834-0.209,2.705-0.625
			c0.869-0.416,1.639-1.021,2.307-1.813c0.668-0.795,1.197-1.767,1.588-2.912c0.391-1.147,0.586-2.452,0.586-3.914
			c0-1.463-0.195-2.768-0.586-3.915C187.512,247.653,186.983,246.683,186.315,245.89z M184.725,256.875
			c-0.238,1.108-0.541,1.998-0.906,2.666c-0.367,0.668-0.77,1.146-1.211,1.437c-0.441,0.291-0.877,0.436-1.305,0.436
			c-0.43,0-0.863-0.145-1.305-0.436c-0.442-0.289-0.846-0.769-1.211-1.437c-0.365-0.668-0.668-1.558-0.906-2.666
			c-0.24-1.108-0.359-2.496-0.359-4.16s0.119-3.051,0.359-4.159c0.238-1.109,0.541-1.998,0.906-2.666
			c0.365-0.668,0.77-1.147,1.211-1.438s0.875-0.437,1.305-0.437c0.428,0,0.863,0.146,1.305,0.437
			c0.442,0.29,0.844,0.771,1.211,1.438c0.365,0.668,0.668,1.557,0.906,2.666c0.24,1.108,0.359,2.495,0.359,4.159
			S184.965,255.767,184.725,256.875z"/>
		<path fill="#12100B" d="M202.69,235.545c-0.416-0.354-0.914-0.637-1.494-0.853c-0.58-0.213-1.223-0.32-1.928-0.32
			c-1.514,0-2.742,0.473-3.688,1.419c-0.945,0.944-1.418,2.174-1.418,3.687v4.539h-2.27v0.756h2.27v15.694l-2.27,0.567v0.378h7.563
			v-0.378l-2.268-0.567v-15.694h5.293v-0.756h-5.293v-4.539c0-0.906,0.057-1.65,0.17-2.23c0.113-0.58,0.264-1.039,0.453-1.38
			s0.41-0.58,0.662-0.72c0.252-0.138,0.516-0.207,0.795-0.207c0.578,0,1.039,0.184,1.379,0.549c0.342,0.365,0.512,0.876,0.512,1.531
			c0,0.429-0.07,0.813-0.209,1.152s-0.297,0.639-0.473,0.889c-0.201,0.278-0.416,0.543-0.643,0.795l2.836,1.135
			c0.227-0.252,0.441-0.516,0.643-0.794c0.178-0.253,0.334-0.548,0.475-0.89c0.137-0.341,0.207-0.725,0.207-1.152
			c0-0.479-0.113-0.945-0.34-1.399S203.106,235.897,202.69,235.545z"/>
		<path fill="#12100B" d="M230.295,256.988c-0.391,0.856-0.869,1.602-1.436,2.229c-0.568,0.631-1.191,1.123-1.873,1.475
			c-0.68,0.354-1.35,0.531-2.004,0.531c-0.807,0-1.576-0.203-2.307-0.605c-0.732-0.403-1.375-1.104-1.93-2.1
			s-0.996-2.332-1.322-4.009c-0.328-1.677-0.492-3.788-0.492-6.335c0-2.546,0.164-4.656,0.492-6.334
			c0.326-1.677,0.756-3.013,1.285-4.01c0.529-0.995,1.135-1.695,1.814-2.1c0.682-0.402,1.375-0.604,2.08-0.604
			c1.135,0,2.188,0.548,3.158,1.645c0.971,1.099,1.746,2.691,2.326,4.785h0.566c-0.051-0.379-0.088-0.77-0.113-1.174
			c-0.025-0.352-0.043-0.736-0.057-1.152c-0.012-0.416-0.018-0.838-0.018-1.268c0-0.378,0.006-0.762,0.018-1.152
			c0.014-0.392,0.031-0.764,0.057-1.117c0.025-0.377,0.063-0.756,0.113-1.135h-0.566c-0.379,0.103-0.738,0.322-1.078,0.662
			c-0.34,0.342-0.611,0.7-0.813,1.078c-0.303-0.353-0.656-0.668-1.059-0.945c-0.354-0.252-0.775-0.479-1.268-0.681
			s-1.041-0.303-1.645-0.303c-1.086,0-2.156,0.284-3.215,0.851c-1.059,0.568-2.012,1.426-2.855,2.572
			c-0.846,1.146-1.525,2.584-2.043,4.311c-0.518,1.729-0.775,3.752-0.775,6.07c0,2.32,0.258,4.344,0.775,6.07
			c0.517,1.727,1.211,3.164,2.08,4.311c0.871,1.148,1.859,2.006,2.969,2.572s2.256,0.852,3.441,0.852
			c0.908,0,1.766-0.188,2.572-0.567c0.807-0.378,1.52-0.913,2.137-1.606c0.617-0.692,1.129-1.513,1.531-2.457
			c0.404-0.947,0.656-1.986,0.756-3.121h-0.566C230.932,255.211,230.686,256.131,230.295,256.988z"/>
		<path fill="#12100B" d="M247.202,245.89c-0.668-0.796-1.438-1.4-2.307-1.816c-0.871-0.416-1.771-0.623-2.705-0.623
			c-0.959,0-1.865,0.207-2.723,0.623s-1.621,1.021-2.289,1.816c-0.668,0.793-1.197,1.764-1.588,2.91
			c-0.391,1.147-0.586,2.452-0.586,3.915c0,1.462,0.195,2.767,0.586,3.914c0.391,1.146,0.92,2.117,1.588,2.912
			c0.668,0.794,1.432,1.397,2.289,1.813s1.764,0.625,2.723,0.625c0.934,0,1.834-0.209,2.705-0.625
			c0.869-0.416,1.639-1.021,2.307-1.813c0.668-0.795,1.197-1.767,1.588-2.912c0.391-1.147,0.586-2.452,0.586-3.914
			c0-1.463-0.195-2.768-0.586-3.915C248.399,247.653,247.869,246.683,247.202,245.89z M245.612,256.875
			c-0.238,1.108-0.541,1.998-0.906,2.666c-0.367,0.668-0.77,1.146-1.211,1.437s-0.877,0.436-1.305,0.436
			c-0.43,0-0.863-0.145-1.305-0.436c-0.442-0.289-0.846-0.769-1.211-1.437c-0.365-0.668-0.668-1.558-0.906-2.666
			c-0.24-1.108-0.359-2.496-0.359-4.16s0.119-3.051,0.359-4.159c0.238-1.109,0.541-1.998,0.906-2.666
			c0.365-0.668,0.77-1.147,1.211-1.438s0.875-0.437,1.305-0.437c0.428,0,0.863,0.146,1.305,0.437s0.844,0.771,1.211,1.438
			c0.365,0.668,0.668,1.557,0.906,2.666c0.24,1.108,0.359,2.495,0.359,4.159S245.852,255.767,245.612,256.875z"/>
		<path fill="#12100B" d="M277.928,249.121c0-0.856-0.133-1.632-0.396-2.326c-0.266-0.692-0.636-1.285-1.115-1.776
			c-0.479-0.492-1.041-0.875-1.683-1.152c-0.643-0.277-1.344-0.416-2.1-0.416c-0.807,0-1.5,0.176-2.08,0.529
			c-0.58,0.353-1.072,0.744-1.475,1.172c-0.453,0.505-0.846,1.072-1.172,1.701c-0.252-0.629-0.605-1.196-1.059-1.701
			c-0.379-0.428-0.877-0.818-1.494-1.172c-0.619-0.354-1.406-0.529-2.363-0.529c-0.758,0-1.414,0.15-1.967,0.453
			c-0.555,0.303-1.01,0.631-1.361,0.982c-0.43,0.43-0.77,0.896-1.021,1.399v-2.271h-5.295v0.379l2.27,0.566v15.506l-2.27,0.567
			v0.378h7.375v-0.378l-2.08-0.567v-12.857c0.277-0.631,0.605-1.196,0.982-1.702c0.328-0.429,0.719-0.818,1.174-1.173
			c0.453-0.353,0.994-0.528,1.625-0.528c0.756,0,1.418,0.372,1.986,1.114c0.566,0.744,0.85,2.013,0.85,3.802v11.346l-2.08,0.567
			v0.378h7.186v-0.378l-2.08-0.567V247.61c0.277-0.631,0.605-1.197,0.984-1.703c0.326-0.428,0.719-0.818,1.172-1.172
			c0.453-0.354,0.996-0.529,1.627-0.529c0.756,0,1.418,0.372,1.984,1.115c0.568,0.744,0.852,2.012,0.852,3.801v11.346l-2.08,0.567
			v0.378h7.374v-0.378l-2.27-0.567V249.121L277.928,249.121z"/>
		<path fill="#12100B" d="M307.994,249.121c0-0.856-0.133-1.632-0.398-2.326c-0.264-0.692-0.637-1.285-1.115-1.776
			c-0.479-0.492-1.039-0.875-1.684-1.152c-0.643-0.277-1.342-0.416-2.098-0.416c-0.809,0-1.5,0.176-2.08,0.529
			c-0.58,0.353-1.072,0.744-1.475,1.172c-0.455,0.505-0.846,1.072-1.174,1.701c-0.252-0.629-0.605-1.196-1.059-1.701
			c-0.379-0.428-0.879-0.818-1.496-1.172c-0.615-0.354-1.402-0.529-2.361-0.529c-0.756,0-1.412,0.15-1.967,0.453
			c-0.557,0.303-1.01,0.631-1.361,0.982c-0.43,0.43-0.771,0.896-1.021,1.399v-2.271h-5.295v0.379l2.27,0.566v15.506l-2.27,0.567
			v0.378h7.375v-0.378l-2.08-0.567v-12.857c0.277-0.631,0.605-1.196,0.984-1.702c0.326-0.429,0.719-0.818,1.172-1.173
			c0.453-0.353,0.996-0.528,1.627-0.528c0.756,0,1.418,0.372,1.984,1.114c0.566,0.744,0.852,2.013,0.852,3.802v11.346l-2.08,0.567
			v0.378h7.186v-0.378l-2.08-0.567V247.61c0.277-0.631,0.605-1.197,0.982-1.703c0.328-0.428,0.719-0.818,1.174-1.172
			c0.453-0.354,0.994-0.529,1.625-0.529c0.758,0,1.418,0.372,1.986,1.115c0.566,0.744,0.85,2.012,0.85,3.801v11.346l-2.078,0.567
			v0.378h7.373v-0.378l-2.268-0.567V249.121L307.994,249.121z"/>
		<path fill="#12100B" d="M326.902,248.705c-0.379-1.159-0.877-2.123-1.492-2.894c-0.617-0.77-1.338-1.354-2.156-1.759
			c-0.818-0.403-1.684-0.604-2.59-0.604c-0.908,0-1.771,0.2-2.592,0.604c-0.818,0.403-1.537,0.989-2.154,1.759
			c-0.619,0.771-1.115,1.733-1.494,2.894s-0.566,2.496-0.566,4.01c0,1.462,0.193,2.767,0.586,3.914
			c0.391,1.146,0.92,2.117,1.588,2.912c0.668,0.794,1.43,1.397,2.287,1.813s1.766,0.625,2.725,0.625c0.807,0,1.557-0.146,2.25-0.436
			s1.305-0.688,1.834-1.191s0.965-1.103,1.305-1.797c0.34-0.691,0.563-1.441,0.662-2.25h-0.568c-0.1,0.707-0.297,1.361-0.586,1.967
			c-0.289,0.606-0.662,1.123-1.113,1.552c-0.453,0.43-0.973,0.77-1.553,1.021s-1.195,0.379-1.854,0.379
			c-0.529,0-1.039-0.139-1.531-0.416s-0.934-0.75-1.324-1.42c-0.391-0.667-0.705-1.543-0.943-2.628
			c-0.24-1.083-0.359-2.433-0.359-4.046h10.211C327.469,251.201,327.281,249.865,326.902,248.705z M317.258,251.958
			c0.051-1.563,0.184-2.855,0.398-3.876c0.213-1.021,0.484-1.835,0.813-2.438c0.328-0.605,0.68-1.027,1.059-1.269
			c0.379-0.239,0.756-0.358,1.137-0.358c0.379,0,0.756,0.119,1.135,0.358c0.379,0.24,0.729,0.662,1.059,1.269
			c0.328,0.604,0.6,1.418,0.813,2.438c0.215,1.021,0.348,2.313,0.398,3.876H317.258z"/>
		<path fill="#12100B" d="M342.068,243.506c-0.252-0.038-0.518-0.057-0.795-0.057c-0.807,0-1.5,0.264-2.08,0.793
			c-0.58,0.53-1.07,1.123-1.475,1.778c-0.453,0.756-0.846,1.601-1.172,2.533v-4.539h-5.295v0.379l2.27,0.566v15.506l-2.27,0.567
			v0.378h7.564v-0.378l-2.27-0.567V249.5c0.252-0.631,0.58-1.197,0.98-1.702c0.328-0.429,0.744-0.818,1.248-1.173
			c0.504-0.353,1.084-0.528,1.74-0.528c0.227,0,0.447,0.031,0.662,0.094c0.213,0.063,0.396,0.133,0.549,0.209
			c0.176,0.102,0.34,0.188,0.49,0.265l1.135-2.837c-0.176-0.049-0.377-0.113-0.604-0.188
			C342.547,243.588,342.32,243.543,342.068,243.506z"/>
		<path fill="#12100B" d="M358.084,258.272c-0.291,0.605-0.662,1.123-1.115,1.552c-0.455,0.43-0.971,0.77-1.551,1.021
			c-0.58,0.252-1.197,0.379-1.854,0.379c-0.58,0-1.129-0.139-1.645-0.416c-0.52-0.277-0.98-0.75-1.381-1.42
			c-0.404-0.666-0.727-1.543-0.967-2.628c-0.238-1.083-0.357-2.433-0.357-4.046s0.119-2.963,0.357-4.047
			c0.24-1.084,0.551-1.954,0.93-2.609c0.377-0.656,0.799-1.129,1.266-1.418s0.939-0.436,1.418-0.436
			c0.959,0,1.898,0.492,2.818,1.475c0.92,0.983,1.619,2.383,2.1,4.198h0.566c-0.051-0.327-0.088-0.668-0.113-1.021
			c-0.025-0.303-0.045-0.649-0.057-1.041c-0.016-0.392-0.021-0.775-0.021-1.153c0-0.327,0.006-0.667,0.021-1.021
			c0.012-0.354,0.029-0.683,0.057-0.984c0.025-0.352,0.063-0.692,0.113-1.021h-0.566c-0.279,0.102-0.574,0.315-0.889,0.645
			c-0.316,0.328-0.523,0.68-0.625,1.059c-0.277-0.354-0.605-0.668-0.982-0.945c-0.328-0.228-0.727-0.44-1.191-0.643
			c-0.467-0.202-1.002-0.303-1.607-0.303c-0.908,0-1.777,0.207-2.609,0.623c-0.83,0.416-1.574,1.021-2.23,1.816
			c-0.656,0.793-1.178,1.764-1.568,2.91c-0.393,1.146-0.586,2.452-0.586,3.915c0,1.462,0.193,2.767,0.586,3.914
			c0.391,1.146,0.926,2.117,1.607,2.912c0.68,0.794,1.467,1.397,2.363,1.813c0.895,0.416,1.834,0.625,2.814,0.625
			c0.809,0,1.559-0.146,2.252-0.436c0.691-0.289,1.307-0.688,1.834-1.191c0.529-0.504,0.963-1.103,1.307-1.797
			c0.34-0.691,0.561-1.441,0.66-2.25h-0.566C358.568,257.015,358.373,257.668,358.084,258.272z"/>
		<path fill="#12100B" d="M375.102,258.272c-0.289,0.605-0.662,1.123-1.115,1.552c-0.451,0.43-0.971,0.77-1.551,1.021
			c-0.58,0.252-1.197,0.379-1.854,0.379c-0.529,0-1.039-0.139-1.531-0.416s-0.934-0.75-1.324-1.42
			c-0.391-0.666-0.705-1.543-0.945-2.628c-0.238-1.083-0.357-2.433-0.357-4.046h10.211c0-1.514-0.189-2.85-0.566-4.01
			c-0.379-1.159-0.877-2.123-1.494-2.893c-0.617-0.771-1.336-1.355-2.156-1.76c-0.818-0.402-1.682-0.604-2.59-0.604
			s-1.771,0.201-2.59,0.604c-0.82,0.403-1.539,0.989-2.156,1.76c-0.619,0.77-1.115,1.732-1.494,2.893s-0.566,2.496-0.566,4.01
			c0,1.462,0.193,2.768,0.586,3.914s0.92,2.117,1.588,2.912c0.668,0.794,1.432,1.398,2.287,1.814
			c0.857,0.416,1.768,0.625,2.727,0.625c0.807,0,1.557-0.146,2.25-0.437c0.691-0.29,1.305-0.687,1.834-1.19
			c0.527-0.504,0.965-1.104,1.305-1.798c0.34-0.692,0.561-1.442,0.662-2.25h-0.568C375.588,257.015,375.391,257.668,375.102,258.272
			z M366.82,248.082c0.215-1.021,0.484-1.835,0.814-2.438c0.328-0.605,0.68-1.027,1.059-1.269c0.379-0.239,0.756-0.358,1.135-0.358
			s0.756,0.119,1.135,0.358c0.379,0.24,0.73,0.662,1.059,1.269c0.328,0.604,0.602,1.418,0.814,2.438
			c0.215,1.021,0.348,2.313,0.396,3.876h-6.809C366.473,250.396,366.605,249.103,366.82,248.082z"/>
	</g>
	<path fill="#E63512" d="M302.615,293.082l-7.008-16.36l-5.559,2.959l-5.227,0.521l-3.48-2.624l-4.65,0.944h-14.086l-3.998-1.752
		l-6.727,16.898l4.91,1.898l2.377,0.994l-0.332,1.528l1.783,1.607l0.668,0.463l0.361,1.767l2.023,1.612l1.826-0.274l0.309,0.969
		l2.297,1.582l1.775-0.314l0.061,0.795l2.082,1.438l1.959-0.565l0.975-0.997l2.109,2.143l2.395,0.352l1.684-1.566v-0.266
		l2.291,0.133l1.971-1.898v-0.979l2.414,0.678l2.438-2.432l-0.184-0.641l0.193,0.104l1.848,0.179l2.059-2.082l-0.535-2.108
		l-0.084-0.118l4.326-2.928L302.615,293.082z M260.862,296.479l0.934-0.932l0.984-0.229l1.084,0.867l-1.992,2.392l-0.195-0.134
		l-1.038-0.935L260.862,296.479z M263.135,301.019l-0.23-1.121l2.578-3.092l1.322-0.316l0.938,0.703l0.307,1.021l-2.447,3.381
		l-1.467,0.222L263.135,301.019z M268.479,304.085l-1.283-0.883l-0.225-0.704l2.498-3.451l1.656-0.62l1.133,0.813l0.283,1.211
		l-2.385,3.34L268.479,304.085z M273.11,305.715l-0.797,0.229l-0.799-0.553l-0.047-0.619l2.418-3.385l1.113-0.146l0.736,0.652
		l-0.166,1.115l-1.221,1.438L273.11,305.715z M278.92,306.928l-1.074-0.155l-1.785-1.813l1.057-1.244l0.066-0.429l2.32,2.277v0.819
		L278.92,306.928z M291.494,300.271l-0.746-0.071l-1.525-0.813l-8.783-7.356l-1.053,1.256l8.654,7.25l0.375,1.317l-1.078,1.074
		l-2.348-0.658l-8.354-7.49l-1.094,1.221l8.224,7.374v0.996l-0.953,0.918l-1.357-0.078l-1.951-2.004v0.063l-2.02-1.983l0.004-0.025
		l-1.963-1.741l-1.473,0.194l-0.34-1.446l-2.342-1.681l-1.889,0.705l-0.326-1.086l-1.982-1.489l-1.947,0.465l-2.041-1.634
		l-2.217,0.511l-1.047,1.047l-2.518-1.056l-3.387-1.311l5.486-13.785l2.758,1.208h11.367l-3.18,1.779l-2.76,4.543l0.408,3.063
		l2.273,1.354l2.932-0.711l3.233-3.797l2.707,0.407l12.537,11.208l0.342,0.479l0.23,0.912L291.494,300.271z M292.451,296.438
		l-12.479-11.184l-4.092-0.615l-3.479,4.086l-1.766,0.428l-1.018-0.605l-0.225-1.705l2.232-3.681l5.436-3.042l3.883-0.789
		l3.404,2.566l6.188-0.619l4.268-2.272l5.615,13.11l-3.184,1.113L292.451,296.438z"/>
</g>
</svg>
